Merritest-Regular.ufo
<glyph name="dollar" format="1">
  <advance width="1270"/>
  <unicode hex="0024"/>
  <outline>
    <contour>
      <point x="174" y="61" type="curve"/>
      <point x="174" y="383" type="line"/>
      <point x="262" y="383" type="line"/>
      <point x="325" y="184" type="line"/>
      <point x="404" y="101"/>
      <point x="539" y="78"/>
      <point x="657" y="78" type="curve" smooth="yes"/>
      <point x="803" y="78"/>
      <point x="962" y="157"/>
      <point x="962" y="343" type="curve" smooth="yes"/>
      <point x="962" y="513"/>
      <point x="783" y="616"/>
      <point x="595" y="720" type="curve" smooth="yes"/>
      <point x="393" y="832"/>
      <point x="184" y="957"/>
      <point x="184" y="1181" type="curve" smooth="yes"/>
      <point x="184" y="1425"/>
      <point x="398" y="1536"/>
      <point x="584" y="1561" type="curve"/>
      <point x="590" y="1731" type="line"/>
      <point x="747" y="1731" type="line"/>
      <point x="741" y="1565" type="line"/>
      <point x="895" y="1556"/>
      <point x="1001" y="1520"/>
      <point x="1052" y="1490" type="curve"/>
      <point x="1052" y="1213" type="line"/>
      <point x="967" y="1213" type="line"/>
      <point x="889" y="1405" type="line"/>
      <point x="842" y="1448"/>
      <point x="747" y="1469"/>
      <point x="650" y="1468" type="curve" smooth="yes"/>
      <point x="542" y="1467"/>
      <point x="365" y="1409"/>
      <point x="365" y="1214" type="curve" smooth="yes"/>
      <point x="365" y="1061"/>
      <point x="525" y="964"/>
      <point x="700" y="870" type="curve" smooth="yes"/>
      <point x="912" y="756"/>
      <point x="1146" y="631"/>
      <point x="1146" y="397" type="curve" smooth="yes"/>
      <point x="1146" y="117"/>
      <point x="934" y="-7"/>
      <point x="681" y="-21" type="curve"/>
      <point x="674" y="-231" type="line"/>
      <point x="517" y="-231" type="line"/>
      <point x="524" y="-19" type="line"/>
      <point x="364" y="-6"/>
      <point x="221" y="32"/>
    </contour>
  </outline>
</glyph>
<glyph name="parenleft" format="1">
  <advance width="813"/>
  <unicode hex="0028"/>
  <outline>
    <contour>
      <point x="597" y="-320" type="line"/>
      <point x="504" y="-265"/>
      <point x="115" y="60"/>
      <point x="115" y="725" type="curve" smooth="yes"/>
      <point x="115" y="1306"/>
      <point x="504" y="1687"/>
      <point x="597" y="1738" type="curve"/>
      <point x="685" y="1686" type="line"/>
      <point x="601" y="1630"/>
      <point x="315" y="1312"/>
      <point x="299" y="774" type="curve" smooth="yes"/>
      <point x="299" y="758"/>
      <point x="298" y="742"/>
      <point x="298" y="726" type="curve" smooth="yes"/>
      <point x="298" y="159"/>
      <point x="602" y="-188"/>
      <point x="698" y="-258" type="curve"/>
    </contour>
  </outline>
</glyph>
<glyph name="parenright" format="1">
  <advance width="813"/>
  <unicode hex="0029"/>
  <outline>
    <contour>
      <point x="128" y="-257" type="line"/>
      <point x="212" y="-201"/>
      <point x="498" y="117"/>
      <point x="514" y="655" type="curve" smooth="yes"/>
      <point x="514" y="671"/>
      <point x="515" y="687"/>
      <point x="515" y="703" type="curve" smooth="yes"/>
      <point x="515" y="1270"/>
      <point x="211" y="1617"/>
      <point x="115" y="1687" type="curve"/>
      <point x="216" y="1749" type="line"/>
      <point x="309" y="1694"/>
      <point x="698" y="1369"/>
      <point x="698" y="704" type="curve" smooth="yes"/>
      <point x="698" y="123"/>
      <point x="309" y="-258"/>
      <point x="216" y="-309" type="curve"/>
    </contour>
  </outline>
</glyph>
<glyph name="comma" format="1">
  <advance width="685"/>
  <unicode hex="002C"/>
  <outline>
    <contour>
      <point x="196" y="89" type="curve"/>
      <point x="196" y="134" type="line"/>
      <point x="308" y="279" type="line"/>
      <point x="466" y="239"/>
      <point x="525" y="65"/>
      <point x="525" y="-43" type="curve" smooth="yes"/>
      <point x="525" y="-270"/>
      <point x="363" y="-434"/>
      <point x="207" y="-498" type="curve"/>
      <point x="160" y="-438" type="line"/>
      <point x="160" y="-412" type="line"/>
      <point x="257" y="-380"/>
      <point x="339" y="-248"/>
      <point x="339" y="-120" type="curve" smooth="yes"/>
      <point x="339" y="-19"/>
      <point x="273" y="81"/>
    </contour>
  </outline>
</glyph>
<glyph name="semicolon" format="1">
  <advance width="706"/>
  <unicode hex="003B"/>
  <outline>
    <contour>
      <point x="341" y="788" type="curve" smooth="yes"/>
      <point x="276" y="788"/>
      <point x="215" y="834"/>
      <point x="215" y="911" type="curve" smooth="yes"/>
      <point x="215" y="994"/>
      <point x="293" y="1057"/>
      <point x="364" y="1057" type="curve" smooth="yes"/>
      <point x="452" y="1057"/>
      <point x="491" y="1001"/>
      <point x="491" y="933" type="curve" smooth="yes"/>
      <point x="491" y="845"/>
      <point x="416" y="788"/>
    </contour>
    <contour>
      <point x="235" y="89" type="curve"/>
      <point x="235" y="134" type="line"/>
      <point x="347" y="279" type="line"/>
      <point x="505" y="239"/>
      <point x="564" y="65"/>
      <point x="564" y="-43" type="curve" smooth="yes"/>
      <point x="564" y="-270"/>
      <point x="402" y="-434"/>
      <point x="246" y="-498" type="curve"/>
      <point x="199" y="-438" type="line"/>
      <point x="199" y="-412" type="line"/>
      <point x="296" y="-380"/>
      <point x="378" y="-248"/>
      <point x="378" y="-120" type="curve" smooth="yes"/>
      <point x="378" y="-19"/>
      <point x="312" y="81"/>
    </contour>
  </outline>
</glyph>
<glyph name="less" format="1">
  <advance width="1325"/>
  <unicode hex="003C"/>
  <outline>
    <contour>
      <point x="128" y="684" type="line"/>
      <point x="128" y="818" type="line"/>
      <point x="1097" y="1313" type="line"/>
      <point x="1097" y="1130" type="line"/>
      <point x="298" y="751" type="line"/>
      <point x="1097" y="374" type="line"/>
      <point x="1097" y="190" type="line"/>
    </contour>
  </outline>
</glyph>
<glyph name="greater" format="1">
  <advance width="1325"/>
  <unicode hex="003E"/>
  <outline>
    <contour>
      <point x="228" y="190" type="line"/>
      <point x="228" y="373" type="line"/>
      <point x="1027" y="751" type="line"/>
      <point x="228" y="1129" type="line"/>
      <point x="228" y="1313" type="line"/>
      <point x="1197" y="819" type="line"/>
      <point x="1197" y="685" type="line"/>
    </contour>
  </outline>
</glyph>
<glyph name="at" format="1">
  <advance width="2133"/>
  <unicode hex="0040"/>
  <outline>
    <contour>
      <point x="236" y="416" type="curve" smooth="yes"/>
      <point x="236" y="1041"/>
      <point x="696" y="1438"/>
      <point x="1216" y="1438" type="curve" smooth="yes"/>
      <point x="1599" y="1438"/>
      <point x="1901" y="1203"/>
      <point x="1901" y="812" type="curve" smooth="yes"/>
      <point x="1901" y="263"/>
      <point x="1582" y="38"/>
      <point x="1360" y="38" type="curve" smooth="yes"/>
      <point x="1298" y="38"/>
      <point x="1249" y="80"/>
      <point x="1239" y="194" type="curve" smooth="yes"/>
      <point x="1237" y="207"/>
      <point x="1237" y="223"/>
      <point x="1237" y="240" type="curve" smooth="yes"/>
      <point x="1237" y="291"/>
      <point x="1244" y="362"/>
      <point x="1261" y="465" type="curve"/>
      <point x="1176" y="249"/>
      <point x="1025" y="25"/>
      <point x="871" y="25" type="curve" smooth="yes"/>
      <point x="748" y="25"/>
      <point x="617" y="177"/>
      <point x="617" y="430" type="curve" smooth="yes"/>
      <point x="617" y="687"/>
      <point x="784" y="1054"/>
      <point x="1072" y="1054" type="curve" smooth="yes"/>
      <point x="1139" y="1054"/>
      <point x="1258" y="1040"/>
      <point x="1328" y="1003" type="curve"/>
      <point x="1336" y="1027"/>
      <point x="1348" y="1054"/>
      <point x="1373" y="1049" type="curve"/>
      <point x="1410" y="1037"/>
      <point x="1448" y="1024"/>
      <point x="1491" y="1009" type="curve"/>
      <point x="1458" y="864"/>
      <point x="1428" y="587"/>
      <point x="1407" y="398" type="curve" smooth="yes"/>
      <point x="1403" y="360"/>
      <point x="1401" y="325"/>
      <point x="1401" y="294" type="curve" smooth="yes"/>
      <point x="1401" y="210"/>
      <point x="1415" y="156"/>
      <point x="1438" y="156" type="curve" smooth="yes"/>
      <point x="1555" y="156"/>
      <point x="1762" y="412"/>
      <point x="1762" y="735" type="curve" smooth="yes"/>
      <point x="1762" y="1162"/>
      <point x="1448" y="1307"/>
      <point x="1137" y="1307" type="curve" smooth="yes"/>
      <point x="739" y="1307"/>
      <point x="383" y="1019"/>
      <point x="383" y="482" type="curve" smooth="yes"/>
      <point x="383" y="-55"/>
      <point x="714" y="-241"/>
      <point x="1101" y="-241" type="curve" smooth="yes"/>
      <point x="1219" y="-241"/>
      <point x="1381" y="-210"/>
      <point x="1447" y="-177" type="curve"/>
      <point x="1484" y="-262" type="line"/>
      <point x="1396" y="-332"/>
      <point x="1196" y="-378"/>
      <point x="1025" y="-378" type="curve" smooth="yes"/>
      <point x="570" y="-378"/>
      <point x="236" y="-72"/>
    </contour>
    <contour>
      <point x="774" y="506" type="curve" smooth="yes"/>
      <point x="774" y="405"/>
      <point x="791" y="193"/>
      <point x="913" y="193" type="curve" smooth="yes"/>
      <point x="1046" y="193"/>
      <point x="1260" y="613"/>
      <point x="1289" y="841" type="curve"/>
      <point x="1248" y="885"/>
      <point x="1138" y="907"/>
      <point x="1075" y="907" type="curve" smooth="yes"/>
      <point x="854" y="907"/>
      <point x="774" y="719"/>
    </contour>
  </outline>
</glyph>
<glyph name="F" format="1">
  <advance width="1238"/>
  <unicode hex="0046"/>
  <outline>
    <contour>
      <point x="104" y="0" type="line"/>
      <point x="104" y="85" type="line"/>
      <point x="275" y="114" type="line"/>
      <point x="275" y="1438" type="line"/>
      <point x="110" y="1455" type="line"/>
      <point x="110" y="1553" type="line"/>
      <point x="1184" y="1553" type="line"/>
      <point x="1203" y="1268" type="line"/>
      <point x="1103" y="1266" type="line"/>
      <point x="1057" y="1429" type="line"/>
      <point x="469" y="1443" type="line"/>
      <point x="469" y="847" type="line"/>
      <point x="909" y="856" type="line"/>
      <point x="949" y="1001" type="line"/>
      <point x="1047" y="1001" type="line"/>
      <point x="1047" y="581" type="line"/>
      <point x="936" y="581" type="line"/>
      <point x="910" y="732" type="line"/>
      <point x="469" y="740" type="line"/>
      <point x="469" y="115" type="line"/>
      <point x="758" y="95" type="line"/>
      <point x="758" y="0" type="line"/>
    </contour>
  </outline>
</glyph>
<glyph name="I" format="1">
  <advance width="763"/>
  <unicode hex="0049"/>
  <outline>
    <contour>
      <point x="105" y="0" type="line"/>
      <point x="105" y="85" type="line"/>
      <point x="284" y="114" type="line"/>
      <point x="284" y="1438" type="line"/>
      <point x="109" y="1455" type="line"/>
      <point x="109" y="1553" type="line"/>
      <point x="652" y="1553" type="line"/>
      <point x="652" y="1455" type="line"/>
      <point x="479" y="1437" type="line"/>
      <point x="479" y="115" type="line"/>
      <point x="661" y="85" type="line"/>
      <point x="661" y="0" type="line"/>
    </contour>
  </outline>
</glyph>
<glyph name="P" format="1">
  <advance width="1296"/>
  <unicode hex="0050"/>
  <outline>
    <contour>
      <point x="86" y="0" type="line"/>
      <point x="86" y="85" type="line"/>
      <point x="275" y="115" type="line"/>
      <point x="275" y="1427" type="line"/>
      <point x="110" y="1444" type="line"/>
      <point x="110" y="1553" type="line"/>
      <point x="373" y="1553" type="line" smooth="yes"/>
      <point x="438" y="1553"/>
      <point x="596" y="1567"/>
      <point x="729" y="1567" type="curve" smooth="yes"/>
      <point x="1036" y="1567"/>
      <point x="1251" y="1462"/>
      <point x="1251" y="1103" type="curve" smooth="yes"/>
      <point x="1251" y="777"/>
      <point x="964" y="588"/>
      <point x="672" y="595" type="curve" smooth="yes"/>
      <point x="641" y="596"/>
      <point x="615" y="596"/>
      <point x="591" y="596" type="curve" smooth="yes"/>
      <point x="537" y="596"/>
      <point x="499" y="594"/>
      <point x="470" y="590" type="curve"/>
      <point x="470" y="115" type="line"/>
      <point x="737" y="85" type="line"/>
      <point x="737" y="0" type="line"/>
    </contour>
    <contour>
      <point x="470" y="708" type="line"/>
      <point x="545" y="697"/>
      <point x="609" y="697"/>
      <point x="669" y="697" type="curve" smooth="yes"/>
      <point x="862" y="697"/>
      <point x="1053" y="761"/>
      <point x="1053" y="1100" type="curve" smooth="yes"/>
      <point x="1053" y="1346"/>
      <point x="910" y="1464"/>
      <point x="653" y="1456" type="curve" smooth="yes"/>
      <point x="588" y="1454"/>
      <point x="530" y="1451"/>
      <point x="470" y="1436" type="curve"/>
    </contour>
  </outline>
</glyph>
<glyph name="Q" format="1">
  <advance width="1554"/>
  <unicode hex="0051"/>
  <outline>
    <contour>
      <point x="87" y="752" type="curve" smooth="yes"/>
      <point x="97" y="1262"/>
      <point x="415" y="1556"/>
      <point x="801" y="1567" type="curve" smooth="yes"/>
      <point x="1217" y="1578"/>
      <point x="1476" y="1241"/>
      <point x="1467" y="788" type="curve" smooth="yes"/>
      <point x="1458" y="339"/>
      <point x="1220" y="55"/>
      <point x="905" y="-12" type="curve"/>
      <point x="969" y="-169"/>
      <point x="1165" y="-190"/>
      <point x="1300" y="-190" type="curve" smooth="yes"/>
      <point x="1349" y="-190"/>
      <point x="1404" y="-179"/>
      <point x="1439" y="-157" type="curve"/>
      <point x="1457" y="-280" type="line"/>
      <point x="1431" y="-320"/>
      <point x="1346" y="-356"/>
      <point x="1234" y="-356" type="curve" smooth="yes"/>
      <point x="1042" y="-356"/>
      <point x="862" y="-291"/>
      <point x="793" y="-27" type="curve"/>
      <point x="786" y="-27"/>
      <point x="778" y="-28"/>
      <point x="771" y="-28" type="curve" smooth="yes"/>
      <point x="349" y="-37"/>
      <point x="78" y="300"/>
    </contour>
    <contour>
      <point x="788" y="77" type="curve" smooth="yes"/>
      <point x="1081" y="77"/>
      <point x="1251" y="342"/>
      <point x="1251" y="787" type="curve" smooth="yes"/>
      <point x="1251" y="1135"/>
      <point x="1089" y="1461"/>
      <point x="784" y="1461" type="curve" smooth="yes"/>
      <point x="490" y="1461"/>
      <point x="303" y="1198"/>
      <point x="303" y="753" type="curve" smooth="yes"/>
      <point x="303" y="405"/>
      <point x="479" y="77"/>
    </contour>
  </outline>
</glyph>
<glyph name="W" format="1">
  <advance width="2101"/>
  <unicode hex="0057"/>
  <outline>
    <contour>
      <point x="625" y="-20" type="line"/>
      <point x="135" y="1438" type="line"/>
      <point x="5" y="1454" type="line"/>
      <point x="5" y="1553" type="line"/>
      <point x="540" y="1553" type="line"/>
      <point x="540" y="1454" type="line"/>
      <point x="351" y="1437" type="line"/>
      <point x="664" y="408" type="line" smooth="yes"/>
      <point x="684" y="343"/>
      <point x="704" y="279"/>
      <point x="725" y="214" type="curve"/>
      <point x="787" y="396" type="line"/>
      <point x="999" y="1258" type="line"/>
      <point x="943" y="1438" type="line"/>
      <point x="781" y="1454" type="line"/>
      <point x="781" y="1553" type="line"/>
      <point x="1326" y="1553" type="line"/>
      <point x="1326" y="1454" type="line"/>
      <point x="1152" y="1438" type="line"/>
      <point x="1424" y="388" type="line"/>
      <point x="1473" y="197" type="line"/>
      <point x="1524" y="426" type="line"/>
      <point x="1785" y="1438" type="line"/>
      <point x="1612" y="1454" type="line"/>
      <point x="1612" y="1553" type="line"/>
      <point x="2096" y="1553" type="line"/>
      <point x="2096" y="1454" type="line"/>
      <point x="1948" y="1438" type="line"/>
      <point x="1521" y="-20" type="line"/>
      <point x="1360" y="-20" type="line"/>
      <point x="1073" y="995" type="line"/>
      <point x="789" y="-20" type="line"/>
    </contour>
  </outline>
</glyph>
<glyph name="X" format="1">
  <advance width="1420"/>
  <unicode hex="0058"/>
  <outline>
    <contour>
      <point x="15" y="0" type="line"/>
      <point x="15" y="85" type="line"/>
      <point x="192" y="114" type="line"/>
      <point x="620" y="781" type="line"/>
      <point x="200" y="1438" type="line"/>
      <point x="51" y="1455" type="line"/>
      <point x="51" y="1553" type="line"/>
      <point x="612" y="1553" type="line"/>
      <point x="612" y="1455" type="line"/>
      <point x="435" y="1438" type="line"/>
      <point x="748" y="899" type="line"/>
      <point x="1057" y="1438" type="line"/>
      <point x="903" y="1455" type="line"/>
      <point x="903" y="1553" type="line"/>
      <point x="1380" y="1553" type="line"/>
      <point x="1380" y="1455" type="line"/>
      <point x="1236" y="1439" type="line"/>
      <point x="820" y="820" type="line"/>
      <point x="1260" y="115" type="line"/>
      <point x="1425" y="85" type="line"/>
      <point x="1425" y="0" type="line"/>
      <point x="850" y="0" type="line"/>
      <point x="850" y="85" type="line"/>
      <point x="1036" y="114" type="line"/>
      <point x="686" y="683" type="line"/>
      <point x="372" y="115" type="line"/>
      <point x="564" y="85" type="line"/>
      <point x="564" y="0" type="line"/>
    </contour>
  </outline>
</glyph>
<glyph name="bracketleft" format="1">
  <advance width="855"/>
  <unicode hex="005B"/>
  <outline>
    <contour>
      <point x="200" y="60" type="curve" smooth="yes"/>
      <point x="200" y="1486" type="line" smooth="yes"/>
      <point x="200" y="1683"/>
      <point x="236" y="1737"/>
      <point x="390" y="1737" type="curve" smooth="yes"/>
      <point x="499" y="1737"/>
      <point x="569" y="1714"/>
      <point x="655" y="1693" type="curve"/>
      <point x="655" y="1664"/>
      <point x="654" y="1636"/>
      <point x="654" y="1607" type="curve"/>
      <point x="363" y="1607" type="line"/>
      <point x="363" y="-59" type="line"/>
      <point x="654" y="-61" type="line"/>
      <point x="654" y="-90"/>
      <point x="655" y="-118"/>
      <point x="655" y="-147" type="curve"/>
      <point x="569" y="-171"/>
      <point x="499" y="-191"/>
      <point x="390" y="-191" type="curve" smooth="yes"/>
      <point x="236" y="-191"/>
      <point x="200" y="-137"/>
    </contour>
  </outline>
</glyph>
<glyph name="underscore" format="1">
  <advance width="1415"/>
  <unicode hex="005F"/>
  <outline>
    <contour>
      <point x="-20" y="-192" type="line"/>
      <point x="1435" y="-192" type="line"/>
      <point x="1435" y="-339" type="line"/>
      <point x="-20" y="-339" type="line"/>
    </contour>
  </outline>
</glyph>
<glyph name="c" format="1">
  <advance width="1045"/>
  <unicode hex="0063"/>
  <outline>
    <contour>
      <point x="104" y="538" type="curve" smooth="yes"/>
      <point x="102" y="905"/>
      <point x="342" y="1137"/>
      <point x="648" y="1149" type="curve" smooth="yes"/>
      <point x="658" y="1149"/>
      <point x="668" y="1150"/>
      <point x="678" y="1150" type="curve" smooth="yes"/>
      <point x="782" y="1150"/>
      <point x="890" y="1131"/>
      <point x="938" y="1099" type="curve"/>
      <point x="938" y="859" type="line"/>
      <point x="843" y="859" type="line"/>
      <point x="792" y="985" type="line"/>
      <point x="749" y="1020"/>
      <point x="676" y="1033"/>
      <point x="628" y="1033" type="curve" smooth="yes"/>
      <point x="450" y="1033"/>
      <point x="290" y="901"/>
      <point x="288" y="626" type="curve" smooth="yes"/>
      <point x="285" y="263"/>
      <point x="484" y="116"/>
      <point x="652" y="116" type="curve" smooth="yes"/>
      <point x="755" y="116"/>
      <point x="884" y="144"/>
      <point x="940" y="177" type="curve"/>
      <point x="974" y="88" type="line"/>
      <point x="896" y="19"/>
      <point x="737" y="-21"/>
      <point x="586" y="-21" type="curve" smooth="yes"/>
      <point x="278" y="-21"/>
      <point x="106" y="217"/>
    </contour>
  </outline>
</glyph>
<glyph name="d" format="1">
  <advance width="1269"/>
  <unicode hex="0064"/>
  <outline>
    <contour>
      <point x="537" y="-24" type="curve" smooth="yes"/>
      <point x="313" y="-24"/>
      <point x="100" y="152"/>
      <point x="100" y="541" type="curve" smooth="yes"/>
      <point x="100" y="898"/>
      <point x="355" y="1153"/>
      <point x="678" y="1153" type="curve" smooth="yes"/>
      <point x="748" y="1153"/>
      <point x="819" y="1143"/>
      <point x="867" y="1127" type="curve"/>
      <point x="867" y="1460" type="line"/>
      <point x="654" y="1496" type="line"/>
      <point x="654" y="1583" type="line"/>
      <point x="1014" y="1625" type="line"/>
      <point x="1059" y="1602" type="line"/>
      <point x="1059" y="85" type="line"/>
      <point x="1194" y="85" type="line"/>
      <point x="1194" y="10" type="line"/>
      <point x="1148" y="-15"/>
      <point x="1053" y="-33"/>
      <point x="984" y="-33" type="curve" smooth="yes"/>
      <point x="935" y="-33"/>
      <point x="874" y="-28"/>
      <point x="874" y="71" type="curve" smooth="yes"/>
      <point x="874" y="96" type="line"/>
      <point x="834" y="51"/>
      <point x="717" y="-24"/>
    </contour>
    <contour>
      <point x="614" y="113" type="curve" smooth="yes"/>
      <point x="656" y="113"/>
      <point x="693" y="118"/>
      <point x="725" y="126" type="curve" smooth="yes"/>
      <point x="790" y="142"/>
      <point x="836" y="171"/>
      <point x="867" y="201" type="curve"/>
      <point x="867" y="966" type="line"/>
      <point x="839" y="1001"/>
      <point x="783" y="1046"/>
      <point x="654" y="1046" type="curve" smooth="yes"/>
      <point x="504" y="1046"/>
      <point x="296" y="937"/>
      <point x="291" y="590" type="curve" smooth="yes"/>
      <point x="286" y="261"/>
      <point x="448" y="113"/>
    </contour>
  </outline>
</glyph>
<glyph name="g" format="1">
  <advance width="1203"/>
  <unicode hex="0067"/>
  <outline>
    <contour>
      <point x="127" y="-233" type="curve" smooth="yes"/>
      <point x="127" y="-111"/>
      <point x="225" y="-6"/>
      <point x="296" y="39" type="curve"/>
      <point x="177" y="81"/>
      <point x="184" y="155"/>
      <point x="184" y="212" type="curve" smooth="yes"/>
      <point x="184" y="261"/>
      <point x="227" y="376"/>
      <point x="308" y="449" type="curve"/>
      <point x="209" y="509"/>
      <point x="146" y="610"/>
      <point x="146" y="754" type="curve" smooth="yes"/>
      <point x="146" y="1030"/>
      <point x="377" y="1156"/>
      <point x="602" y="1161" type="curve" smooth="yes"/>
      <point x="714" y="1163"/>
      <point x="817" y="1138"/>
      <point x="893" y="1081" type="curve"/>
      <point x="920" y="1112"/>
      <point x="969" y="1133"/>
      <point x="1054" y="1133" type="curve" smooth="yes"/>
      <point x="1175" y="1133" type="line"/>
      <point x="1175" y="982" type="line"/>
      <point x="979" y="982" type="line"/>
      <point x="1007" y="931"/>
      <point x="1023" y="867"/>
      <point x="1023" y="791" type="curve" smooth="yes"/>
      <point x="1023" y="526"/>
      <point x="812" y="381"/>
      <point x="578" y="381" type="curve" smooth="yes"/>
      <point x="501" y="381"/>
      <point x="430" y="393"/>
      <point x="367" y="418" type="curve"/>
      <point x="357" y="392"/>
      <point x="355" y="359"/>
      <point x="355" y="332" type="curve" smooth="yes"/>
      <point x="355" y="315"/>
      <point x="356" y="299"/>
      <point x="356" y="289" type="curve" smooth="yes"/>
      <point x="356" y="217"/>
      <point x="389" y="177"/>
      <point x="484" y="169" type="curve" smooth="yes"/>
      <point x="544" y="164"/>
      <point x="627" y="164"/>
      <point x="742" y="164" type="curve" smooth="yes"/>
      <point x="1116" y="164"/>
      <point x="1136" y="-22"/>
      <point x="1136" y="-150" type="curve" smooth="yes"/>
      <point x="1136" y="-379"/>
      <point x="940" y="-531"/>
      <point x="610" y="-531" type="curve" smooth="yes"/>
      <point x="371" y="-531"/>
      <point x="127" y="-463"/>
    </contour>
    <contour>
      <point x="607" y="488" type="curve" smooth="yes"/>
      <point x="773" y="488"/>
      <point x="832" y="579"/>
      <point x="832" y="763" type="curve" smooth="yes"/>
      <point x="832" y="961"/>
      <point x="746" y="1056"/>
      <point x="576" y="1056" type="curve" smooth="yes"/>
      <point x="443" y="1056"/>
      <point x="337" y="994"/>
      <point x="337" y="792" type="curve" smooth="yes"/>
      <point x="337" y="626"/>
      <point x="414" y="488"/>
    </contour>
    <contour>
      <point x="313" y="-169" type="curve" smooth="yes"/>
      <point x="313" y="-351"/>
      <point x="461" y="-418"/>
      <point x="634" y="-418" type="curve" smooth="yes"/>
      <point x="851" y="-418"/>
      <point x="982" y="-347"/>
      <point x="982" y="-198" type="curve" smooth="yes"/>
      <point x="982" y="-70"/>
      <point x="935" y="4"/>
      <point x="688" y="4" type="curve"/>
      <point x="562" y="6" type="line"/>
      <point x="484" y="6"/>
      <point x="422" y="11"/>
      <point x="373" y="19" type="curve"/>
      <point x="342" y="-19"/>
      <point x="313" y="-71"/>
    </contour>
  </outline>
</glyph>
<glyph name="h" format="1">
  <advance width="1404"/>
  <unicode hex="0068"/>
  <outline>
    <contour>
      <point x="124" y="0" type="line"/>
      <point x="124" y="85" type="line"/>
      <point x="274" y="106" type="line"/>
      <point x="274" y="1460" type="line"/>
      <point x="103" y="1496" type="line"/>
      <point x="103" y="1583" type="line"/>
      <point x="419" y="1625" type="line"/>
      <point x="466" y="1602" type="line"/>
      <point x="464" y="1160" type="line"/>
      <point x="461" y="987" type="line"/>
      <point x="578" y="1083"/>
      <point x="744" y="1139"/>
      <point x="851" y="1139" type="curve" smooth="yes"/>
      <point x="1122" y="1139"/>
      <point x="1188" y="979"/>
      <point x="1185" y="607" type="curve"/>
      <point x="1185" y="106" type="line"/>
      <point x="1335" y="85" type="line"/>
      <point x="1335" y="0" type="line"/>
      <point x="825" y="0" type="line"/>
      <point x="825" y="85" type="line"/>
      <point x="993" y="106" type="line"/>
      <point x="993" y="522" type="line" smooth="yes"/>
      <point x="993" y="832"/>
      <point x="979" y="993"/>
      <point x="758" y="993" type="curve" smooth="yes"/>
      <point x="669" y="993"/>
      <point x="559" y="975"/>
      <point x="466" y="909" type="curve"/>
      <point x="466" y="106" type="line"/>
      <point x="613" y="85" type="line"/>
      <point x="613" y="0" type="line"/>
    </contour>
  </outline>
</glyph>
<glyph name="u" format="1">
  <advance width="1292"/>
  <unicode hex="0075"/>
  <outline>
    <contour>
      <point x="214" y="461" type="curve"/>
      <point x="214" y="977" type="line"/>
      <point x="111" y="1007" type="line"/>
      <point x="111" y="1084" type="line"/>
      <point x="368" y="1139" type="line"/>
      <point x="403" y="1121" type="line"/>
      <point x="403" y="432" type="line" smooth="yes"/>
      <point x="403" y="211"/>
      <point x="444" y="116"/>
      <point x="619" y="116" type="curve" smooth="yes"/>
      <point x="738" y="116"/>
      <point x="860" y="192"/>
      <point x="895" y="229" type="curve"/>
      <point x="895" y="968" type="line"/>
      <point x="770" y="1000" type="line"/>
      <point x="770" y="1082" type="line"/>
      <point x="1056" y="1139" type="line"/>
      <point x="1084" y="1122" type="line"/>
      <point x="1084" y="85" type="line"/>
      <point x="1204" y="85" type="line"/>
      <point x="1204" y="9" type="line"/>
      <point x="1165" y="-12"/>
      <point x="1080" y="-34"/>
      <point x="1017" y="-34" type="curve" smooth="yes"/>
      <point x="953" y="-34"/>
      <point x="914" y="-7"/>
      <point x="914" y="52" type="curve" smooth="yes"/>
      <point x="914" y="134" type="line"/>
      <point x="799" y="33"/>
      <point x="665" y="-21"/>
      <point x="545" y="-21" type="curve" smooth="yes"/>
      <point x="231" y="-21"/>
      <point x="216" y="184"/>
    </contour>
  </outline>
</glyph>
<glyph name="v" format="1">
  <advance width="1188"/>
  <unicode hex="0076"/>
  <outline>
    <contour>
      <point x="538" y="-24" type="line"/>
      <point x="99" y="995" type="line"/>
      <point x="2" y="1014" type="line"/>
      <point x="2" y="1119" type="line"/>
      <point x="442" y="1119" type="line"/>
      <point x="442" y="1014" type="line"/>
      <point x="319" y="993" type="line"/>
      <point x="538" y="459" type="line"/>
      <point x="632" y="173" type="line"/>
      <point x="724" y="447" type="line"/>
      <point x="915" y="993" type="line"/>
      <point x="787" y="1013" type="line"/>
      <point x="787" y="1119" type="line"/>
      <point x="1186" y="1119" type="line"/>
      <point x="1186" y="1014" type="line"/>
      <point x="1080" y="992" type="line"/>
      <point x="673" y="-24" type="line"/>
    </contour>
  </outline>
</glyph>
<glyph name="w" format="1">
  <advance width="1692"/>
  <unicode hex="0077"/>
  <outline>
    <contour>
      <point x="444" y="-25" type="line"/>
      <point x="104" y="995" type="line"/>
      <point x="2" y="1013" type="line"/>
      <point x="2" y="1119" type="line"/>
      <point x="438" y="1119" type="line"/>
      <point x="438" y="1013" type="line"/>
      <point x="300" y="992" type="line"/>
      <point x="488" y="382" type="line"/>
      <point x="542" y="165" type="line"/>
      <point x="587" y="381" type="line"/>
      <point x="777" y="1119" type="line"/>
      <point x="949" y="1119" type="line"/>
      <point x="1142" y="382" type="line"/>
      <point x="1199" y="165" type="line"/>
      <point x="1254" y="374" type="line"/>
      <point x="1410" y="994" type="line"/>
      <point x="1286" y="1013" type="line"/>
      <point x="1286" y="1119" type="line"/>
      <point x="1690" y="1119" type="line"/>
      <point x="1690" y="1014" type="line"/>
      <point x="1565" y="991" type="line"/>
      <point x="1267" y="-25" type="line"/>
      <point x="1091" y="-25" type="line"/>
      <point x="875" y="737" type="line"/>
      <point x="849" y="886" type="line"/>
      <point x="811" y="737" type="line"/>
      <point x="610" y="-25" type="line"/>
    </contour>
  </outline>
</glyph>
<glyph name="z" format="1">
  <advance width="1078"/>
  <unicode hex="007A"/>
  <outline>
    <contour>
      <point x="120" y="0" type="line"/>
      <point x="88" y="82" type="line"/>
      <point x="157" y="177" type="line"/>
      <point x="696" y="927" type="line"/>
      <point x="778" y="1025" type="line"/>
      <point x="288" y="1009" type="line"/>
      <point x="228" y="825" type="line"/>
      <point x="135" y="825" type="line"/>
      <point x="135" y="1119" type="line"/>
      <point x="984" y="1119" type="line"/>
      <point x="1009" y="1037" type="line"/>
      <point x="423" y="228" type="line"/>
      <point x="323" y="98" type="line"/>
      <point x="853" y="120" type="line"/>
      <point x="917" y="289" type="line"/>
      <point x="951" y="289"/>
      <point x="986" y="288"/>
      <point x="1020" y="288" type="curve"/>
      <point x="1003" y="0" type="line"/>
    </contour>
  </outline>
</glyph>
<glyph name="braceleft" format="1">
  <advance width="1035"/>
  <unicode hex="007B"/>
  <outline>
    <contour>
      <point x="330" y="60" type="curve" smooth="yes"/>
      <point x="330" y="579" type="line" smooth="yes"/>
      <point x="330" y="632"/>
      <point x="194" y="688"/>
      <point x="80" y="714" type="curve"/>
      <point x="80" y="840" type="line"/>
      <point x="192" y="867"/>
      <point x="330" y="912"/>
      <point x="330" y="967" type="curve" smooth="yes"/>
      <point x="330" y="1486" type="line" smooth="yes"/>
      <point x="330" y="1683"/>
      <point x="366" y="1737"/>
      <point x="520" y="1737" type="curve" smooth="yes"/>
      <point x="629" y="1737"/>
      <point x="699" y="1714"/>
      <point x="785" y="1693" type="curve"/>
      <point x="785" y="1664"/>
      <point x="784" y="1636"/>
      <point x="784" y="1607" type="curve"/>
      <point x="493" y="1607" type="line"/>
      <point x="493" y="971" type="line" smooth="yes"/>
      <point x="493" y="915"/>
      <point x="463" y="879"/>
      <point x="418" y="849" type="curve" smooth="yes"/>
      <point x="377" y="822"/>
      <point x="325" y="801"/>
      <point x="272" y="776" type="curve"/>
      <point x="335" y="748"/>
      <point x="396" y="720"/>
      <point x="439" y="683" type="curve" smooth="yes"/>
      <point x="472" y="654"/>
      <point x="493" y="619"/>
      <point x="493" y="575" type="curve" smooth="yes"/>
      <point x="493" y="-59" type="line"/>
      <point x="784" y="-59" type="line"/>
      <point x="784" y="-88"/>
      <point x="785" y="-118"/>
      <point x="785" y="-147" type="curve"/>
      <point x="699" y="-171"/>
      <point x="629" y="-191"/>
      <point x="520" y="-191" type="curve" smooth="yes"/>
      <point x="366" y="-191"/>
      <point x="330" y="-137"/>
    </contour>
  </outline>
</glyph>
<glyph name="braceright" format="1">
  <advance width="958"/>
  <unicode hex="007D"/>
  <outline>
    <contour>
      <point x="174" y="-59" type="curve"/>
      <point x="465" y="-59" type="line"/>
      <point x="465" y="575" type="line" smooth="yes"/>
      <point x="465" y="619"/>
      <point x="486" y="654"/>
      <point x="519" y="683" type="curve" smooth="yes"/>
      <point x="561" y="720"/>
      <point x="622" y="748"/>
      <point x="685" y="776" type="curve"/>
      <point x="632" y="801"/>
      <point x="580" y="822"/>
      <point x="540" y="849" type="curve" smooth="yes"/>
      <point x="495" y="879"/>
      <point x="465" y="915"/>
      <point x="465" y="971" type="curve" smooth="yes"/>
      <point x="465" y="1607" type="line"/>
      <point x="174" y="1607" type="line"/>
      <point x="174" y="1636"/>
      <point x="173" y="1664"/>
      <point x="173" y="1693" type="curve"/>
      <point x="259" y="1714"/>
      <point x="329" y="1737"/>
      <point x="438" y="1737" type="curve" smooth="yes"/>
      <point x="592" y="1737"/>
      <point x="628" y="1683"/>
      <point x="628" y="1486" type="curve" smooth="yes"/>
      <point x="628" y="967" type="line" smooth="yes"/>
      <point x="628" y="912"/>
      <point x="766" y="867"/>
      <point x="878" y="840" type="curve"/>
      <point x="878" y="714" type="line"/>
      <point x="764" y="688"/>
      <point x="628" y="632"/>
      <point x="628" y="579" type="curve" smooth="yes"/>
      <point x="628" y="60" type="line" smooth="yes"/>
      <point x="628" y="-137"/>
      <point x="592" y="-191"/>
      <point x="438" y="-191" type="curve" smooth="yes"/>
      <point x="329" y="-191"/>
      <point x="259" y="-171"/>
      <point x="173" y="-147" type="curve"/>
      <point x="173" y="-118"/>
      <point x="174" y="-88"/>
    </contour>
  </outline>
</glyph>
<glyph name="asciitilde" format="1">
  <advance width="1257"/>
  <unicode hex="007E"/>
  <outline>
    <contour>
      <point x="221" y="779" type="curve"/>
      <point x="149" y="868" type="line"/>
      <point x="209" y="969"/>
      <point x="345" y="1058"/>
      <point x="491" y="1058" type="curve" smooth="yes"/>
      <point x="648" y="1058"/>
      <point x="707" y="891"/>
      <point x="823" y="891" type="curve" smooth="yes"/>
      <point x="915" y="891"/>
      <point x="986" y="950"/>
      <point x="1035" y="994" type="curve"/>
      <point x="1107" y="905" type="line"/>
      <point x="1047" y="804"/>
      <point x="911" y="714"/>
      <point x="765" y="714" type="curve" smooth="yes"/>
      <point x="608" y="714"/>
      <point x="551" y="882"/>
      <point x="433" y="882" type="curve" smooth="yes"/>
      <point x="340" y="882"/>
      <point x="270" y="823"/>
    </contour>
  </outline>
</glyph>
<glyph name="exclamdown" format="1">
  <advance width="713"/>
  <unicode hex="00A1"/>
  <outline>
    <contour>
      <point x="348" y="1169" type="curve" smooth="yes"/>
      <point x="283" y="1169"/>
      <point x="222" y="1215"/>
      <point x="222" y="1292" type="curve" smooth="yes"/>
      <point x="222" y="1375"/>
      <point x="300" y="1438"/>
      <point x="371" y="1438" type="curve" smooth="yes"/>
      <point x="459" y="1438"/>
      <point x="498" y="1382"/>
      <point x="498" y="1314" type="curve" smooth="yes"/>
      <point x="498" y="1226"/>
      <point x="423" y="1169"/>
    </contour>
    <contour>
      <point x="215" y="-408" type="line"/>
      <point x="288" y="922" type="line"/>
      <point x="406" y="922" type="line"/>
      <point x="471" y="-408" type="line"/>
    </contour>
  </outline>
</glyph>
<glyph name="sterling" format="1">
  <advance width="1441"/>
  <unicode hex="00A3"/>
  <outline>
    <contour>
      <point x="89" y="61" type="curve" smooth="yes"/>
      <point x="89" y="133"/>
      <point x="202" y="226"/>
      <point x="384" y="218" type="curve"/>
      <point x="411" y="277"/>
      <point x="418" y="397"/>
      <point x="418" y="475" type="curve" smooth="yes"/>
      <point x="418" y="727" type="line"/>
      <point x="238" y="727" type="line"/>
      <point x="238" y="874" type="line"/>
      <point x="418" y="874" type="line"/>
      <point x="418" y="987" type="line" smooth="yes"/>
      <point x="418" y="1285"/>
      <point x="617" y="1568"/>
      <point x="915" y="1567" type="curve" smooth="yes"/>
      <point x="1026" y="1567"/>
      <point x="1109" y="1554"/>
      <point x="1187" y="1486" type="curve"/>
      <point x="1091" y="1303" type="line"/>
      <point x="1080" y="1322"/>
      <point x="975" y="1443"/>
      <point x="820" y="1443" type="curve" smooth="yes"/>
      <point x="706" y="1443"/>
      <point x="609" y="1351"/>
      <point x="609" y="989" type="curve" smooth="yes"/>
      <point x="609" y="874" type="line"/>
      <point x="935" y="874" type="line"/>
      <point x="935" y="727" type="line"/>
      <point x="610" y="727" type="line"/>
      <point x="610" y="696" type="line" smooth="yes"/>
      <point x="610" y="418"/>
      <point x="578" y="327"/>
      <point x="498" y="187" type="curve"/>
      <point x="588" y="181"/>
      <point x="707" y="100"/>
      <point x="833" y="78" type="curve" smooth="yes"/>
      <point x="869" y="72"/>
      <point x="901" y="69"/>
      <point x="930" y="69" type="curve" smooth="yes"/>
      <point x="1107" y="69"/>
      <point x="1164" y="178"/>
      <point x="1164" y="284" type="curve" smooth="yes"/>
      <point x="1164" y="334"/>
      <point x="1143" y="396"/>
      <point x="1091" y="435" type="curve"/>
      <point x="1183" y="610" type="line"/>
      <point x="1274" y="571"/>
      <point x="1331" y="483"/>
      <point x="1346" y="372" type="curve" smooth="yes"/>
      <point x="1348" y="355"/>
      <point x="1350" y="334"/>
      <point x="1350" y="313" type="curve" smooth="yes"/>
      <point x="1350" y="181"/>
      <point x="1291" y="-9"/>
      <point x="998" y="-35" type="curve" smooth="yes"/>
      <point x="972" y="-37"/>
      <point x="946" y="-38"/>
      <point x="922" y="-38" type="curve" smooth="yes"/>
      <point x="631" y="-38"/>
      <point x="479" y="115"/>
      <point x="398" y="100" type="curve"/>
      <point x="347" y="30"/>
      <point x="275" y="-31"/>
      <point x="187" y="-31" type="curve" smooth="yes"/>
      <point x="150" y="-31"/>
      <point x="89" y="-19"/>
    </contour>
  </outline>
</glyph>
<glyph name="dieresis" format="1">
  <advance width="1062"/>
  <unicode hex="00A8"/>
  <outline>
    <contour>
      <point x="752" y="1382" type="curve" smooth="yes"/>
      <point x="687" y="1382"/>
      <point x="628" y="1425"/>
      <point x="628" y="1502" type="curve" smooth="yes"/>
      <point x="628" y="1585"/>
      <point x="704" y="1646"/>
      <point x="775" y="1646" type="curve" smooth="yes"/>
      <point x="863" y="1646"/>
      <point x="902" y="1592"/>
      <point x="902" y="1524" type="curve" smooth="yes"/>
      <point x="902" y="1436"/>
      <point x="827" y="1382"/>
    </contour>
    <contour>
      <point x="286" y="1382" type="curve" smooth="yes"/>
      <point x="221" y="1382"/>
      <point x="162" y="1425"/>
      <point x="162" y="1502" type="curve" smooth="yes"/>
      <point x="162" y="1585"/>
      <point x="238" y="1646"/>
      <point x="309" y="1646" type="curve" smooth="yes"/>
      <point x="397" y="1646"/>
      <point x="436" y="1592"/>
      <point x="436" y="1524" type="curve" smooth="yes"/>
      <point x="436" y="1436"/>
      <point x="361" y="1382"/>
    </contour>
  </outline>
</glyph>
<glyph name="copyright" format="1">
  <advance width="2041"/>
  <unicode hex="00A9"/>
  <outline>
    <contour>
      <point x="1021" y="219" type="curve" smooth="yes"/>
      <point x="559" y="219"/>
      <point x="178" y="610"/>
      <point x="178" y="1069" type="curve" smooth="yes"/>
      <point x="178" y="1531"/>
      <point x="559" y="1920"/>
      <point x="1021" y="1920" type="curve" smooth="yes"/>
      <point x="1481" y="1920"/>
      <point x="1863" y="1531"/>
      <point x="1863" y="1069" type="curve" smooth="yes"/>
      <point x="1863" y="610"/>
      <point x="1481" y="219"/>
    </contour>
    <contour>
      <point x="1021" y="339" type="curve" smooth="yes"/>
      <point x="1415" y="339"/>
      <point x="1733" y="675"/>
      <point x="1733" y="1069" type="curve" smooth="yes"/>
      <point x="1733" y="1466"/>
      <point x="1415" y="1800"/>
      <point x="1021" y="1800" type="curve" smooth="yes"/>
      <point x="625" y="1800"/>
      <point x="308" y="1466"/>
      <point x="308" y="1069" type="curve" smooth="yes"/>
      <point x="308" y="675"/>
      <point x="625" y="339"/>
    </contour>
    <contour>
      <point x="1030" y="584" type="curve" smooth="yes"/>
      <point x="735" y="584"/>
      <point x="583" y="784"/>
      <point x="583" y="1061" type="curve" smooth="yes"/>
      <point x="583" y="1342"/>
      <point x="821" y="1558"/>
      <point x="1030" y="1573" type="curve" smooth="yes"/>
      <point x="1045" y="1574"/>
      <point x="1066" y="1575"/>
      <point x="1089" y="1575" type="curve" smooth="yes"/>
      <point x="1177" y="1575"/>
      <point x="1305" y="1564"/>
      <point x="1344" y="1515" type="curve"/>
      <point x="1344" y="1305" type="line"/>
      <point x="1228" y="1305" type="line"/>
      <point x="1179" y="1431" type="line"/>
      <point x="1149" y="1451"/>
      <point x="1122" y="1464"/>
      <point x="1012" y="1464" type="curve" smooth="yes"/>
      <point x="855" y="1464"/>
      <point x="767" y="1312"/>
      <point x="767" y="1101" type="curve" smooth="yes"/>
      <point x="767" y="877"/>
      <point x="911" y="720"/>
      <point x="1102" y="720" type="curve" smooth="yes"/>
      <point x="1186" y="720"/>
      <point x="1294" y="749"/>
      <point x="1326" y="779" type="curve"/>
      <point x="1354" y="706" type="line"/>
      <point x="1297" y="641"/>
      <point x="1172" y="584"/>
    </contour>
  </outline>
</glyph>
<glyph name="logicalnot" format="1">
  <advance width="1232"/>
  <unicode hex="00AC"/>
  <outline>
    <contour>
      <point x="178" y="744" type="line"/>
      <point x="178" y="872" type="line"/>
      <point x="1054" y="872" type="line"/>
      <point x="1054" y="343" type="line"/>
      <point x="890" y="343" type="line"/>
      <point x="890" y="744" type="line"/>
    </contour>
  </outline>
</glyph>
<glyph name="registered" format="1">
  <advance width="2041"/>
  <unicode hex="00AE"/>
  <outline>
    <contour>
      <point x="1021" y="219" type="curve" smooth="yes"/>
      <point x="559" y="219"/>
      <point x="178" y="610"/>
      <point x="178" y="1069" type="curve" smooth="yes"/>
      <point x="178" y="1531"/>
      <point x="559" y="1920"/>
      <point x="1021" y="1920" type="curve" smooth="yes"/>
      <point x="1481" y="1920"/>
      <point x="1863" y="1531"/>
      <point x="1863" y="1069" type="curve" smooth="yes"/>
      <point x="1863" y="610"/>
      <point x="1481" y="219"/>
    </contour>
    <contour>
      <point x="1021" y="339" type="curve" smooth="yes"/>
      <point x="1415" y="339"/>
      <point x="1733" y="675"/>
      <point x="1733" y="1069" type="curve" smooth="yes"/>
      <point x="1733" y="1466"/>
      <point x="1415" y="1800"/>
      <point x="1021" y="1800" type="curve" smooth="yes"/>
      <point x="625" y="1800"/>
      <point x="308" y="1466"/>
      <point x="308" y="1069" type="curve" smooth="yes"/>
      <point x="308" y="675"/>
      <point x="625" y="339"/>
    </contour>
    <contour>
      <point x="626" y="594" type="line"/>
      <point x="626" y="679" type="line"/>
      <point x="718" y="707" type="line"/>
      <point x="718" y="1435" type="line"/>
      <point x="626" y="1459" type="line"/>
      <point x="626" y="1556" type="line"/>
      <point x="786" y="1556" type="line"/>
      <point x="803" y="1555"/>
      <point x="817" y="1555"/>
      <point x="831" y="1555" type="curve" smooth="yes"/>
      <point x="880" y="1555"/>
      <point x="919" y="1559"/>
      <point x="1050" y="1561" type="curve"/>
      <point x="1278" y="1561"/>
      <point x="1397" y="1478"/>
      <point x="1401" y="1325" type="curve"/>
      <point x="1401" y="1206"/>
      <point x="1356" y="1067"/>
      <point x="1140" y="1029" type="curve"/>
      <point x="1319" y="929"/>
      <point x="1315" y="687"/>
      <point x="1477" y="687" type="curve"/>
      <point x="1477" y="594" type="line"/>
      <point x="1319" y="594" type="line" smooth="yes"/>
      <point x="1132" y="594"/>
      <point x="1170" y="926"/>
      <point x="971" y="1010" type="curve"/>
      <point x="897" y="1010" type="line"/>
      <point x="897" y="701" type="line"/>
      <point x="988" y="679" type="line"/>
      <point x="988" y="594" type="line"/>
    </contour>
    <contour>
      <point x="897" y="1108" type="line"/>
      <point x="937" y="1100"/>
      <point x="972" y="1099"/>
      <point x="1031" y="1099" type="curve" smooth="yes"/>
      <point x="1143" y="1099"/>
      <point x="1221" y="1185"/>
      <point x="1221" y="1281" type="curve" smooth="yes"/>
      <point x="1221" y="1409"/>
      <point x="1137" y="1461"/>
      <point x="1014" y="1461" type="curve" smooth="yes"/>
      <point x="969" y="1461"/>
      <point x="953" y="1463"/>
      <point x="897" y="1450" type="curve"/>
    </contour>
  </outline>
</glyph>
<glyph name="macron" format="1">
  <advance width="885"/>
  <unicode hex="00AF"/>
  <outline>
    <contour>
      <point x="195" y="1443" type="line"/>
      <point x="195" y="1591" type="line"/>
      <point x="726" y="1591" type="line"/>
      <point x="726" y="1443" type="line"/>
    </contour>
  </outline>
</glyph>
<glyph name="degree" format="1">
  <advance width="677"/>
  <unicode hex="00B0"/>
  <outline>
    <contour>
      <point x="338" y="961" type="curve" smooth="yes"/>
      <point x="164" y="961"/>
      <point x="20" y="1104"/>
      <point x="20" y="1277" type="curve" smooth="yes"/>
      <point x="20" y="1450"/>
      <point x="164" y="1593"/>
      <point x="338" y="1593" type="curve" smooth="yes"/>
      <point x="514" y="1593"/>
      <point x="657" y="1450"/>
      <point x="657" y="1277" type="curve" smooth="yes"/>
      <point x="657" y="1104"/>
      <point x="514" y="961"/>
    </contour>
    <contour>
      <point x="338" y="1075" type="curve" smooth="yes"/>
      <point x="455" y="1075"/>
      <point x="538" y="1162"/>
      <point x="538" y="1278" type="curve" smooth="yes"/>
      <point x="538" y="1389"/>
      <point x="450" y="1480"/>
      <point x="338" y="1480" type="curve" smooth="yes"/>
      <point x="221" y="1480"/>
      <point x="138" y="1393"/>
      <point x="138" y="1278" type="curve" smooth="yes"/>
      <point x="138" y="1167"/>
      <point x="226" y="1075"/>
    </contour>
  </outline>
</glyph>
<glyph name="cedilla" format="1">
  <advance width="615"/>
  <unicode hex="00B8"/>
  <outline>
    <contour>
      <point x="218" y="0" type="curve"/>
      <point x="333" y="0" type="line"/>
      <point x="330" y="-22"/>
      <point x="327" y="-53"/>
      <point x="327" y="-83" type="curve" smooth="yes"/>
      <point x="327" y="-97"/>
      <point x="328" y="-112"/>
      <point x="329" y="-125" type="curve"/>
      <point x="514" y="-125"/>
      <point x="584" y="-227"/>
      <point x="584" y="-314" type="curve" smooth="yes"/>
      <point x="584" y="-446"/>
      <point x="477" y="-520"/>
      <point x="331" y="-527" type="curve" smooth="yes"/>
      <point x="313" y="-528"/>
      <point x="297" y="-528"/>
      <point x="283" y="-528" type="curve" smooth="yes"/>
      <point x="202" y="-528"/>
      <point x="169" y="-515"/>
      <point x="134" y="-506" type="curve"/>
      <point x="134" y="-472"/>
      <point x="135" y="-439"/>
      <point x="135" y="-405" type="curve"/>
      <point x="166" y="-413"/>
      <point x="224" y="-420"/>
      <point x="248" y="-420" type="curve" smooth="yes"/>
      <point x="322" y="-420"/>
      <point x="388" y="-410"/>
      <point x="388" y="-309" type="curve" smooth="yes"/>
      <point x="388" y="-251"/>
      <point x="339" y="-209"/>
      <point x="231" y="-209" type="curve" smooth="yes"/>
      <point x="216" y="-209"/>
      <point x="186" y="-212"/>
      <point x="182" y="-213" type="curve"/>
      <point x="183" y="-148"/>
      <point x="196" y="-81"/>
    </contour>
  </outline>
</glyph>
<glyph name="guillemotright" format="1">
  <advance width="1897"/>
  <unicode hex="00BB"/>
  <outline>
    <contour>
      <point x="954" y="248" type="line"/>
      <point x="1467" y="623" type="line"/>
      <point x="954" y="984" type="line"/>
      <point x="1005" y="1075" type="line"/>
      <point x="1653" y="710" type="line"/>
      <point x="1653" y="545" type="line"/>
      <point x="1005" y="163" type="line"/>
    </contour>
    <contour>
      <point x="296" y="163" type="line"/>
      <point x="245" y="248" type="line"/>
      <point x="758" y="623" type="line"/>
      <point x="245" y="984" type="line"/>
      <point x="296" y="1075" type="line"/>
      <point x="944" y="710" type="line"/>
      <point x="944" y="545" type="line"/>
    </contour>
  </outline>
</glyph>
<glyph name="threequarters" format="1">
  <advance width="2626"/>
  <unicode hex="00BE"/>
  <outline>
    <contour>
      <point x="796" y="-312" type="line"/>
      <point x="1571" y="1881" type="line"/>
      <point x="1701" y="1844" type="line"/>
      <point x="928" y="-343" type="line"/>
    </contour>
    <contour>
      <point x="225" y="674" type="curve"/>
      <point x="225" y="784" type="line"/>
      <point x="303" y="754"/>
      <point x="423" y="731"/>
      <point x="506" y="732" type="curve" smooth="yes"/>
      <point x="703" y="734"/>
      <point x="796" y="828"/>
      <point x="796" y="946" type="curve" smooth="yes"/>
      <point x="796" y="1062"/>
      <point x="702" y="1118"/>
      <point x="582" y="1120" type="curve"/>
      <point x="385" y="1080" type="line"/>
      <point x="385" y="1200" type="line"/>
      <point x="603" y="1243"/>
      <point x="670" y="1310"/>
      <point x="706" y="1401" type="curve" smooth="yes"/>
      <point x="715" y="1424"/>
      <point x="716" y="1450"/>
      <point x="715" y="1474" type="curve" smooth="yes"/>
      <point x="712" y="1555"/>
      <point x="607" y="1591"/>
      <point x="530" y="1588" type="curve" smooth="yes"/>
      <point x="430" y="1584"/>
      <point x="304" y="1544"/>
      <point x="238" y="1496" type="curve"/>
      <point x="189" y="1586" type="line"/>
      <point x="250" y="1634"/>
      <point x="398" y="1699"/>
      <point x="531" y="1713" type="curve" smooth="yes"/>
      <point x="553" y="1715"/>
      <point x="574" y="1716"/>
      <point x="594" y="1716" type="curve" smooth="yes"/>
      <point x="799" y="1716"/>
      <point x="915" y="1600"/>
      <point x="915" y="1469" type="curve" smooth="yes"/>
      <point x="915" y="1349"/>
      <point x="841" y="1258"/>
      <point x="689" y="1203" type="curve"/>
      <point x="928" y="1215"/>
      <point x="993" y="1030"/>
      <point x="993" y="939" type="curve" smooth="yes"/>
      <point x="993" y="751"/>
      <point x="823" y="606"/>
      <point x="531" y="606" type="curve" smooth="yes"/>
      <point x="451" y="606"/>
      <point x="322" y="628"/>
    </contour>
    <contour>
      <point x="1410" y="282" type="line"/>
      <point x="1984" y="1113" type="line"/>
      <point x="2052" y="1114" type="line"/>
      <point x="2162" y="1012" type="line"/>
      <point x="1651" y="387" type="line"/>
      <point x="1579" y="291" type="line"/>
      <point x="1987" y="323" type="line"/>
      <point x="1989" y="575" type="line"/>
      <point x="2165" y="595" type="line"/>
      <point x="2165" y="337" type="line"/>
      <point x="2438" y="358" type="line"/>
      <point x="2441" y="188" type="line"/>
      <point x="2165" y="188" type="line"/>
      <point x="2165" y="-177" type="line"/>
      <point x="1984" y="-177" type="line"/>
      <point x="1986" y="188" type="line"/>
      <point x="1462" y="188" type="line"/>
    </contour>
  </outline>
</glyph>
<glyph name="Aacute" format="1">
  <advance width="1493"/>
  <unicode hex="00C1"/>
  <outline>
    <contour>
      <point x="740" y="1607" type="curve"/>
      <point x="687" y="1661" type="line"/>
      <point x="993" y="1920" type="line"/>
      <point x="1139" y="1771" type="line"/>
      <point x="1014" y="1691"/>
      <point x="864" y="1629"/>
    </contour>
    <contour>
      <point x="2" y="0" type="line"/>
      <point x="2" y="85" type="line"/>
      <point x="145" y="114" type="line"/>
      <point x="666" y="1553" type="line"/>
      <point x="834" y="1553" type="line"/>
      <point x="1332" y="115" type="line"/>
      <point x="1491" y="85" type="line"/>
      <point x="1491" y="0" type="line"/>
      <point x="963" y="0" type="line"/>
      <point x="963" y="85" type="line"/>
      <point x="1129" y="115" type="line"/>
      <point x="1021" y="437" type="line"/>
      <point x="421" y="437" type="line"/>
      <point x="313" y="115" type="line"/>
      <point x="480" y="85" type="line"/>
      <point x="480" y="0" type="line"/>
    </contour>
    <contour>
      <point x="460" y="554" type="line"/>
      <point x="982" y="554" type="line"/>
      <point x="819" y="1042" type="line"/>
      <point x="724" y="1343" type="line"/>
    </contour>
  </outline>
</glyph>
<glyph name="AE" format="1">
  <advance width="1940"/>
  <unicode hex="00C6"/>
  <outline>
    <contour>
      <point x="2" y="0" type="line"/>
      <point x="2" y="85" type="line"/>
      <point x="143" y="114" type="line"/>
      <point x="727" y="1553" type="line"/>
      <point x="1698" y="1553" type="line"/>
      <point x="1727" y="1268" type="line"/>
      <point x="1627" y="1266" type="line"/>
      <point x="1581" y="1435" type="line"/>
      <point x="970" y="1447" type="line"/>
      <point x="1143" y="868" type="line"/>
      <point x="1529" y="874" type="line"/>
      <point x="1559" y="1031" type="line"/>
      <point x="1651" y="1031" type="line"/>
      <point x="1651" y="611" type="line"/>
      <point x="1559" y="611" type="line"/>
      <point x="1529" y="754" type="line"/>
      <point x="1176" y="758" type="line"/>
      <point x="1369" y="111" type="line"/>
      <point x="1690" y="127" type="line"/>
      <point x="1790" y="334" type="line"/>
      <point x="1877" y="291" type="line"/>
      <point x="1832" y="0" type="line"/>
      <point x="986" y="0" type="line"/>
      <point x="986" y="85" type="line"/>
      <point x="1149" y="115" type="line"/>
      <point x="1044" y="456" type="line"/>
      <point x="439" y="456" type="line"/>
      <point x="311" y="115" type="line"/>
      <point x="480" y="85" type="line"/>
      <point x="480" y="0" type="line"/>
    </contour>
    <contour>
      <point x="483" y="573" type="line"/>
      <point x="1008" y="573" type="line"/>
      <point x="820" y="1185" type="line"/>
      <point x="784" y="1376" type="line"/>
    </contour>
  </outline>
</glyph>
<glyph name="Edieresis" format="1">
  <advance width="1319"/>
  <unicode hex="00CB"/>
  <outline>
    <contour>
      <point x="946" y="1651" type="curve" smooth="yes"/>
      <point x="881" y="1651"/>
      <point x="820" y="1697"/>
      <point x="820" y="1774" type="curve" smooth="yes"/>
      <point x="820" y="1857"/>
      <point x="898" y="1920"/>
      <point x="969" y="1920" type="curve" smooth="yes"/>
      <point x="1057" y="1920"/>
      <point x="1096" y="1864"/>
      <point x="1096" y="1796" type="curve" smooth="yes"/>
      <point x="1096" y="1708"/>
      <point x="1021" y="1651"/>
    </contour>
    <contour>
      <point x="480" y="1651" type="curve" smooth="yes"/>
      <point x="415" y="1651"/>
      <point x="354" y="1697"/>
      <point x="354" y="1774" type="curve" smooth="yes"/>
      <point x="354" y="1857"/>
      <point x="432" y="1920"/>
      <point x="503" y="1920" type="curve" smooth="yes"/>
      <point x="591" y="1920"/>
      <point x="630" y="1864"/>
      <point x="630" y="1796" type="curve" smooth="yes"/>
      <point x="630" y="1708"/>
      <point x="555" y="1651"/>
    </contour>
    <contour>
      <point x="102" y="0" type="line"/>
      <point x="102" y="85" type="line"/>
      <point x="271" y="115" type="line"/>
      <point x="271" y="1437" type="line"/>
      <point x="106" y="1455" type="line"/>
      <point x="106" y="1553" type="line"/>
      <point x="1144" y="1553" type="line"/>
      <point x="1173" y="1267" type="line"/>
      <point x="1063" y="1267" type="line"/>
      <point x="1017" y="1435" type="line"/>
      <point x="465" y="1448" type="line"/>
      <point x="465" y="865" type="line"/>
      <point x="837" y="872" type="line"/>
      <point x="867" y="1029" type="line"/>
      <point x="969" y="1029" type="line"/>
      <point x="969" y="599" type="line"/>
      <point x="867" y="599" type="line"/>
      <point x="837" y="752" type="line"/>
      <point x="465" y="758" type="line"/>
      <point x="465" y="108" type="line"/>
      <point x="1059" y="127" type="line"/>
      <point x="1159" y="334" type="line"/>
      <point x="1256" y="310" type="line"/>
      <point x="1211" y="0" type="line"/>
    </contour>
  </outline>
</glyph>
<glyph name="Iacute" format="1">
  <advance width="763"/>
  <unicode hex="00CD"/>
  <outline>
    <contour>
      <point x="376" y="1607" type="curve"/>
      <point x="323" y="1661" type="line"/>
      <point x="629" y="1920" type="line"/>
      <point x="775" y="1771" type="line"/>
      <point x="650" y="1691"/>
      <point x="500" y="1629"/>
    </contour>
    <contour>
      <point x="105" y="0" type="line"/>
      <point x="105" y="85" type="line"/>
      <point x="284" y="114" type="line"/>
      <point x="284" y="1438" type="line"/>
      <point x="109" y="1455" type="line"/>
      <point x="109" y="1553" type="line"/>
      <point x="652" y="1553" type="line"/>
      <point x="652" y="1455" type="line"/>
      <point x="479" y="1437" type="line"/>
      <point x="479" y="115" type="line"/>
      <point x="661" y="85" type="line"/>
      <point x="661" y="0" type="line"/>
    </contour>
  </outline>
</glyph>
<glyph name="Ntilde" format="1">
  <advance width="1662"/>
  <unicode hex="00D1"/>
  <outline>
    <contour>
      <point x="485" y="1677" type="curve"/>
      <point x="433" y="1750" type="line"/>
      <point x="483" y="1843"/>
      <point x="605" y="1920"/>
      <point x="710" y="1920" type="curve" smooth="yes"/>
      <point x="841" y="1920"/>
      <point x="873" y="1794"/>
      <point x="970" y="1794" type="curve" smooth="yes"/>
      <point x="1047" y="1794"/>
      <point x="1113" y="1833"/>
      <point x="1155" y="1875" type="curve"/>
      <point x="1207" y="1802" type="line"/>
      <point x="1157" y="1709"/>
      <point x="1035" y="1631"/>
      <point x="930" y="1631" type="curve" smooth="yes"/>
      <point x="799" y="1631"/>
      <point x="768" y="1761"/>
      <point x="670" y="1761" type="curve" smooth="yes"/>
      <point x="600" y="1761"/>
      <point x="526" y="1718"/>
    </contour>
    <contour>
      <point x="104" y="0" type="line"/>
      <point x="104" y="85" type="line"/>
      <point x="275" y="115" type="line"/>
      <point x="275" y="1427" type="line"/>
      <point x="110" y="1444" type="line"/>
      <point x="110" y="1553" type="line"/>
      <point x="465" y="1553" type="line"/>
      <point x="1134" y="458" type="line"/>
      <point x="1276" y="184" type="line"/>
      <point x="1276" y="1428" type="line"/>
      <point x="1112" y="1445" type="line"/>
      <point x="1112" y="1553" type="line"/>
      <point x="1585" y="1553" type="line"/>
      <point x="1585" y="1445" type="line"/>
      <point x="1419" y="1428" type="line"/>
      <point x="1419" y="0" type="line"/>
      <point x="1214" y="0" type="line"/>
      <point x="554" y="1040" type="line"/>
      <point x="418" y="1318" type="line"/>
      <point x="418" y="115" type="line"/>
      <point x="612" y="85" type="line"/>
      <point x="612" y="0" type="line"/>
    </contour>
  </outline>
</glyph>
<glyph name="Yacute" format="1">
  <advance width="1352"/>
  <unicode hex="00DD"/>
  <outline>
    <contour>
      <point x="701" y="1607" type="curve"/>
      <point x="648" y="1661" type="line"/>
      <point x="954" y="1920" type="line"/>
      <point x="1100" y="1771" type="line"/>
      <point x="975" y="1691"/>
      <point x="825" y="1629"/>
    </contour>
    <contour>
      <point x="402" y="0" type="line"/>
      <point x="402" y="85" type="line"/>
      <point x="606" y="116" type="line"/>
      <point x="606" y="638" type="line"/>
      <point x="126" y="1438" type="line"/>
      <point x="12" y="1455" type="line"/>
      <point x="12" y="1553" type="line"/>
      <point x="504" y="1553" type="line"/>
      <point x="504" y="1455" type="line"/>
      <point x="350" y="1437" type="line"/>
      <point x="668" y="845" type="line"/>
      <point x="716" y="744" type="line"/>
      <point x="761" y="847" type="line"/>
      <point x="1049" y="1436" type="line"/>
      <point x="879" y="1455" type="line"/>
      <point x="879" y="1553" type="line"/>
      <point x="1339" y="1553" type="line"/>
      <point x="1339" y="1455" type="line"/>
      <point x="1209" y="1428" type="line"/>
      <point x="801" y="637" type="line"/>
      <point x="801" y="116" type="line"/>
      <point x="1015" y="85" type="line"/>
      <point x="1015" y="0" type="line"/>
    </contour>
  </outline>
</glyph>
<glyph name="atilde" format="1">
  <advance width="1145"/>
  <unicode hex="00E3"/>
  <outline>
    <contour>
      <point x="233" y="1417" type="curve"/>
      <point x="181" y="1490" type="line"/>
      <point x="231" y="1583"/>
      <point x="353" y="1665"/>
      <point x="458" y="1665" type="curve" smooth="yes"/>
      <point x="589" y="1665"/>
      <point x="621" y="1530"/>
      <point x="718" y="1530" type="curve" smooth="yes"/>
      <point x="795" y="1530"/>
      <point x="861" y="1583"/>
      <point x="903" y="1625" type="curve"/>
      <point x="955" y="1552" type="line"/>
      <point x="905" y="1459"/>
      <point x="783" y="1376"/>
      <point x="678" y="1376" type="curve" smooth="yes"/>
      <point x="547" y="1376"/>
      <point x="516" y="1512"/>
      <point x="418" y="1512" type="curve" smooth="yes"/>
      <point x="340" y="1512"/>
      <point x="274" y="1458"/>
    </contour>
    <contour>
      <point x="110" y="322" type="curve" smooth="yes"/>
      <point x="140" y="601"/>
      <point x="567" y="665"/>
      <point x="755" y="665" type="curve"/>
      <point x="755" y="752" type="line" smooth="yes"/>
      <point x="755" y="963"/>
      <point x="635" y="1006"/>
      <point x="481" y="1006" type="curve" smooth="yes"/>
      <point x="403" y="1006"/>
      <point x="284" y="976"/>
      <point x="190" y="930" type="curve"/>
      <point x="153" y="1020" type="line"/>
      <point x="253" y="1101"/>
      <point x="453" y="1139"/>
      <point x="555" y="1139" type="curve" smooth="yes"/>
      <point x="767" y="1139"/>
      <point x="949" y="1063"/>
      <point x="948" y="773" type="curve" smooth="yes"/>
      <point x="946" y="85" type="line"/>
      <point x="1074" y="85" type="line"/>
      <point x="1074" y="19" type="line"/>
      <point x="1028" y="-6"/>
      <point x="953" y="-24"/>
      <point x="884" y="-24" type="curve" smooth="yes"/>
      <point x="835" y="-24"/>
      <point x="766" y="-19"/>
      <point x="766" y="80" type="curve" smooth="yes"/>
      <point x="766" y="108" type="line"/>
      <point x="704" y="34"/>
      <point x="602" y="-24"/>
      <point x="433" y="-24" type="curve" smooth="yes"/>
      <point x="238" y="-24"/>
      <point x="108" y="116"/>
      <point x="108" y="286" type="curve" smooth="yes"/>
      <point x="108" y="298"/>
      <point x="109" y="310"/>
    </contour>
    <contour>
      <point x="304" y="318" type="curve" smooth="yes"/>
      <point x="304" y="160"/>
      <point x="393" y="103"/>
      <point x="540" y="103" type="curve" smooth="yes"/>
      <point x="619" y="103"/>
      <point x="712" y="149"/>
      <point x="753" y="189" type="curve"/>
      <point x="753" y="313"/>
      <point x="754" y="437"/>
      <point x="755" y="562" type="curve"/>
      <point x="586" y="562"/>
      <point x="304" y="512"/>
    </contour>
  </outline>
</glyph>
<glyph name="adieresis" format="1">
  <advance width="1145"/>
  <unicode hex="00E4"/>
  <outline>
    <contour>
      <point x="800" y="1382" type="curve" smooth="yes"/>
      <point x="735" y="1382"/>
      <point x="676" y="1425"/>
      <point x="676" y="1502" type="curve" smooth="yes"/>
      <point x="676" y="1585"/>
      <point x="752" y="1646"/>
      <point x="823" y="1646" type="curve" smooth="yes"/>
      <point x="911" y="1646"/>
      <point x="950" y="1592"/>
      <point x="950" y="1524" type="curve" smooth="yes"/>
      <point x="950" y="1436"/>
      <point x="875" y="1382"/>
    </contour>
    <contour>
      <point x="334" y="1382" type="curve" smooth="yes"/>
      <point x="269" y="1382"/>
      <point x="210" y="1425"/>
      <point x="210" y="1502" type="curve" smooth="yes"/>
      <point x="210" y="1585"/>
      <point x="286" y="1646"/>
      <point x="357" y="1646" type="curve" smooth="yes"/>
      <point x="445" y="1646"/>
      <point x="484" y="1592"/>
      <point x="484" y="1524" type="curve" smooth="yes"/>
      <point x="484" y="1436"/>
      <point x="409" y="1382"/>
    </contour>
    <contour>
      <point x="110" y="322" type="curve" smooth="yes"/>
      <point x="140" y="601"/>
      <point x="567" y="665"/>
      <point x="755" y="665" type="curve"/>
      <point x="755" y="752" type="line" smooth="yes"/>
      <point x="755" y="963"/>
      <point x="635" y="1006"/>
      <point x="481" y="1006" type="curve" smooth="yes"/>
      <point x="403" y="1006"/>
      <point x="284" y="976"/>
      <point x="190" y="930" type="curve"/>
      <point x="153" y="1020" type="line"/>
      <point x="253" y="1101"/>
      <point x="453" y="1139"/>
      <point x="555" y="1139" type="curve" smooth="yes"/>
      <point x="767" y="1139"/>
      <point x="949" y="1063"/>
      <point x="948" y="773" type="curve" smooth="yes"/>
      <point x="946" y="85" type="line"/>
      <point x="1074" y="85" type="line"/>
      <point x="1074" y="19" type="line"/>
      <point x="1028" y="-6"/>
      <point x="953" y="-24"/>
      <point x="884" y="-24" type="curve" smooth="yes"/>
      <point x="835" y="-24"/>
      <point x="766" y="-19"/>
      <point x="766" y="80" type="curve" smooth="yes"/>
      <point x="766" y="108" type="line"/>
      <point x="704" y="34"/>
      <point x="602" y="-24"/>
      <point x="433" y="-24" type="curve" smooth="yes"/>
      <point x="238" y="-24"/>
      <point x="108" y="116"/>
      <point x="108" y="286" type="curve" smooth="yes"/>
      <point x="108" y="298"/>
      <point x="109" y="310"/>
    </contour>
    <contour>
      <point x="304" y="318" type="curve" smooth="yes"/>
      <point x="304" y="160"/>
      <point x="393" y="103"/>
      <point x="540" y="103" type="curve" smooth="yes"/>
      <point x="619" y="103"/>
      <point x="712" y="149"/>
      <point x="753" y="189" type="curve"/>
      <point x="753" y="313"/>
      <point x="754" y="437"/>
      <point x="755" y="562" type="curve"/>
      <point x="586" y="562"/>
      <point x="304" y="512"/>
    </contour>
  </outline>
</glyph>
<glyph name="ae" format="1">
  <advance width="1800"/>
  <unicode hex="00E6"/>
  <outline>
    <contour>
      <point x="110" y="322" type="curve" smooth="yes"/>
      <point x="140" y="601"/>
      <point x="567" y="665"/>
      <point x="755" y="665" type="curve"/>
      <point x="755" y="752" type="line" smooth="yes"/>
      <point x="755" y="963"/>
      <point x="635" y="1006"/>
      <point x="481" y="1006" type="curve" smooth="yes"/>
      <point x="403" y="1006"/>
      <point x="284" y="976"/>
      <point x="190" y="930" type="curve"/>
      <point x="153" y="1020" type="line"/>
      <point x="253" y="1101"/>
      <point x="453" y="1139"/>
      <point x="555" y="1139" type="curve" smooth="yes"/>
      <point x="705" y="1139"/>
      <point x="839" y="1101"/>
      <point x="905" y="976" type="curve"/>
      <point x="1003" y="1083"/>
      <point x="1142" y="1148"/>
      <point x="1308" y="1152" type="curve" smooth="yes"/>
      <point x="1544" y="1158"/>
      <point x="1688" y="1000"/>
      <point x="1699" y="736" type="curve" smooth="yes"/>
      <point x="1699" y="725"/>
      <point x="1700" y="714"/>
      <point x="1700" y="703" type="curve" smooth="yes"/>
      <point x="1700" y="637"/>
      <point x="1692" y="586"/>
      <point x="1687" y="545" type="curve"/>
      <point x="947" y="545" type="line"/>
      <point x="952" y="198"/>
      <point x="1164" y="113"/>
      <point x="1334" y="113" type="curve" smooth="yes"/>
      <point x="1437" y="113"/>
      <point x="1584" y="140"/>
      <point x="1640" y="173" type="curve"/>
      <point x="1677" y="88" type="line"/>
      <point x="1599" y="18"/>
      <point x="1409" y="-24"/>
      <point x="1258" y="-24" type="curve" smooth="yes"/>
      <point x="1082" y="-24"/>
      <point x="950" y="43"/>
      <point x="865" y="160" type="curve"/>
      <point x="788" y="54"/>
      <point x="627" y="-24"/>
      <point x="433" y="-24" type="curve" smooth="yes"/>
      <point x="238" y="-24"/>
      <point x="108" y="116"/>
      <point x="108" y="286" type="curve" smooth="yes"/>
      <point x="108" y="298"/>
      <point x="109" y="310"/>
    </contour>
    <contour>
      <point x="948" y="663" type="curve"/>
      <point x="1495" y="663" type="line"/>
      <point x="1497" y="686"/>
      <point x="1497" y="709"/>
      <point x="1497" y="732" type="curve" smooth="yes"/>
      <point x="1497" y="846"/>
      <point x="1475" y="957"/>
      <point x="1390" y="1011" type="curve" smooth="yes"/>
      <point x="1356" y="1033"/>
      <point x="1312" y="1045"/>
      <point x="1256" y="1045" type="curve" smooth="yes"/>
      <point x="1106" y="1045"/>
      <point x="969" y="938"/>
    </contour>
    <contour>
      <point x="304" y="318" type="curve" smooth="yes"/>
      <point x="304" y="160"/>
      <point x="393" y="103"/>
      <point x="540" y="103" type="curve" smooth="yes"/>
      <point x="619" y="103"/>
      <point x="712" y="149"/>
      <point x="753" y="189" type="curve"/>
      <point x="753" y="313"/>
      <point x="754" y="437"/>
      <point x="755" y="562" type="curve"/>
      <point x="586" y="562"/>
      <point x="304" y="512"/>
    </contour>
  </outline>
</glyph>
<glyph name="igrave" format="1">
  <advance width="683"/>
  <unicode hex="00EC"/>
  <outline>
    <contour>
      <point x="479" y="1340" type="line"/>
      <point x="370" y="1391"/>
      <point x="172" y="1508"/>
      <point x="92" y="1631" type="curve"/>
      <point x="238" y="1780" type="line"/>
      <point x="532" y="1394" type="line"/>
    </contour>
    <contour>
      <point x="112" y="0" type="line"/>
      <point x="112" y="85" type="line"/>
      <point x="282" y="106" type="line"/>
      <point x="282" y="925" type="line"/>
      <point x="144" y="998" type="line"/>
      <point x="144" y="1060" type="line"/>
      <point x="421" y="1139" type="line"/>
      <point x="466" y="1119" type="line"/>
      <point x="466" y="106" type="line"/>
      <point x="628" y="85" type="line"/>
      <point x="628" y="0" type="line"/>
    </contour>
  </outline>
</glyph>
<glyph name="iacute" format="1">
  <advance width="683"/>
  <unicode hex="00ED"/>
  <outline>
    <contour>
      <point x="263" y="1340" type="curve"/>
      <point x="210" y="1394" type="line"/>
      <point x="504" y="1780" type="line"/>
      <point x="650" y="1631" type="line"/>
      <point x="570" y="1508"/>
      <point x="372" y="1391"/>
    </contour>
    <contour>
      <point x="112" y="0" type="line"/>
      <point x="112" y="85" type="line"/>
      <point x="282" y="106" type="line"/>
      <point x="282" y="925" type="line"/>
      <point x="144" y="998" type="line"/>
      <point x="144" y="1060" type="line"/>
      <point x="421" y="1139" type="line"/>
      <point x="466" y="1119" type="line"/>
      <point x="466" y="106" type="line"/>
      <point x="628" y="85" type="line"/>
      <point x="628" y="0" type="line"/>
    </contour>
  </outline>
</glyph>
<glyph name="eth" format="1">
  <advance width="1231"/>
  <unicode hex="00F0"/>
  <outline>
    <contour>
      <point x="100" y="502" type="curve" smooth="yes"/>
      <point x="100" y="851"/>
      <point x="335" y="1032"/>
      <point x="616" y="1032" type="curve" smooth="yes"/>
      <point x="715" y="1032"/>
      <point x="853" y="977"/>
      <point x="918" y="904" type="curve"/>
      <point x="874" y="1107"/>
      <point x="746" y="1281"/>
      <point x="606" y="1403" type="curve"/>
      <point x="437" y="1257" type="line"/>
      <point x="337" y="1335" type="line"/>
      <point x="502" y="1484" type="line"/>
      <point x="438" y="1527"/>
      <point x="376" y="1559"/>
      <point x="321" y="1577" type="curve"/>
      <point x="347" y="1685" type="line"/>
      <point x="437" y="1655"/>
      <point x="518" y="1617"/>
      <point x="592" y="1574" type="curve"/>
      <point x="655" y="1629"/>
      <point x="765" y="1724"/>
      <point x="765" y="1724" type="curve"/>
      <point x="868" y="1639" type="line"/>
      <point x="863" y="1634"/>
      <point x="769" y="1554"/>
      <point x="705" y="1498" type="curve"/>
      <point x="1001" y="1272"/>
      <point x="1131" y="935"/>
      <point x="1131" y="619" type="curve" smooth="yes"/>
      <point x="1131" y="198"/>
      <point x="897" y="-22"/>
      <point x="615" y="-27" type="curve"/>
      <point x="306" y="-34"/>
      <point x="100" y="189"/>
    </contour>
    <contour>
      <point x="310" y="511" type="curve" smooth="yes"/>
      <point x="310" y="284"/>
      <point x="419" y="77"/>
      <point x="631" y="77" type="curve" smooth="yes"/>
      <point x="813" y="77"/>
      <point x="923" y="315"/>
      <point x="923" y="551" type="curve" smooth="yes"/>
      <point x="923" y="564"/>
      <point x="925" y="629"/>
      <point x="917" y="667" type="curve" smooth="yes"/>
      <point x="898" y="755"/>
      <point x="811" y="924"/>
      <point x="615" y="924" type="curve" smooth="yes"/>
      <point x="399" y="924"/>
      <point x="310" y="763"/>
    </contour>
  </outline>
</glyph>
<glyph name="ntilde" format="1">
  <advance width="1396"/>
  <unicode hex="00F1"/>
  <outline>
    <contour>
      <point x="405" y="1417" type="curve"/>
      <point x="353" y="1490" type="line"/>
      <point x="403" y="1583"/>
      <point x="525" y="1665"/>
      <point x="630" y="1665" type="curve" smooth="yes"/>
      <point x="761" y="1665"/>
      <point x="793" y="1530"/>
      <point x="890" y="1530" type="curve" smooth="yes"/>
      <point x="967" y="1530"/>
      <point x="1033" y="1583"/>
      <point x="1075" y="1625" type="curve"/>
      <point x="1127" y="1552" type="line"/>
      <point x="1077" y="1459"/>
      <point x="955" y="1376"/>
      <point x="850" y="1376" type="curve" smooth="yes"/>
      <point x="719" y="1376"/>
      <point x="688" y="1512"/>
      <point x="590" y="1512" type="curve" smooth="yes"/>
      <point x="512" y="1512"/>
      <point x="446" y="1458"/>
    </contour>
    <contour>
      <point x="138" y="0" type="line"/>
      <point x="138" y="85" type="line"/>
      <point x="274" y="105" type="line"/>
      <point x="274" y="920" type="line"/>
      <point x="132" y="998" type="line"/>
      <point x="132" y="1060" type="line"/>
      <point x="398" y="1139" type="line"/>
      <point x="443" y="1119" type="line"/>
      <point x="443" y="976" type="line"/>
      <point x="533" y="1054"/>
      <point x="709" y="1134"/>
      <point x="846" y="1139" type="curve" smooth="yes"/>
      <point x="1093" y="1147"/>
      <point x="1177" y="1006"/>
      <point x="1177" y="670" type="curve" smooth="yes"/>
      <point x="1177" y="105" type="line"/>
      <point x="1338" y="85" type="line"/>
      <point x="1338" y="0" type="line"/>
      <point x="834" y="0" type="line"/>
      <point x="834" y="85" type="line"/>
      <point x="985" y="106" type="line"/>
      <point x="985" y="635" type="line" smooth="yes"/>
      <point x="985" y="879"/>
      <point x="947" y="1002"/>
      <point x="744" y="993" type="curve" smooth="yes"/>
      <point x="662" y="989"/>
      <point x="569" y="958"/>
      <point x="468" y="889" type="curve"/>
      <point x="468" y="106" type="line"/>
      <point x="617" y="85" type="line"/>
      <point x="617" y="0" type="line"/>
    </contour>
  </outline>
</glyph>
<glyph name="otilde" format="1">
  <advance width="1231"/>
  <unicode hex="00F5"/>
  <outline>
    <contour>
      <point x="284" y="1417" type="curve"/>
      <point x="232" y="1490" type="line"/>
      <point x="282" y="1583"/>
      <point x="404" y="1665"/>
      <point x="509" y="1665" type="curve" smooth="yes"/>
      <point x="640" y="1665"/>
      <point x="672" y="1530"/>
      <point x="769" y="1530" type="curve" smooth="yes"/>
      <point x="846" y="1530"/>
      <point x="912" y="1583"/>
      <point x="954" y="1625" type="curve"/>
      <point x="1006" y="1552" type="line"/>
      <point x="956" y="1459"/>
      <point x="834" y="1376"/>
      <point x="729" y="1376" type="curve" smooth="yes"/>
      <point x="598" y="1376"/>
      <point x="567" y="1512"/>
      <point x="469" y="1512" type="curve" smooth="yes"/>
      <point x="391" y="1512"/>
      <point x="325" y="1458"/>
    </contour>
    <contour>
      <point x="101" y="582" type="curve" smooth="yes"/>
      <point x="106" y="940"/>
      <point x="356" y="1149"/>
      <point x="633" y="1152" type="curve" smooth="yes"/>
      <point x="972" y="1156"/>
      <point x="1133" y="895"/>
      <point x="1130" y="573" type="curve" smooth="yes"/>
      <point x="1127" y="218"/>
      <point x="895" y="-23"/>
      <point x="608" y="-24" type="curve" smooth="yes"/>
      <point x="241" y="-25"/>
      <point x="97" y="265"/>
    </contour>
    <contour>
      <point x="617" y="88" type="curve" smooth="yes"/>
      <point x="843" y="83"/>
      <point x="925" y="256"/>
      <point x="925" y="564" type="curve" smooth="yes"/>
      <point x="925" y="833"/>
      <point x="833" y="1043"/>
      <point x="621" y="1047" type="curve" smooth="yes"/>
      <point x="395" y="1051"/>
      <point x="306" y="878"/>
      <point x="306" y="591" type="curve" smooth="yes"/>
      <point x="306" y="332"/>
      <point x="405" y="93"/>
    </contour>
  </outline>
</glyph>
<glyph name="odieresis" format="1">
  <advance width="1231"/>
  <unicode hex="00F6"/>
  <outline>
    <contour>
      <point x="851" y="1382" type="curve" smooth="yes"/>
      <point x="786" y="1382"/>
      <point x="727" y="1425"/>
      <point x="727" y="1502" type="curve" smooth="yes"/>
      <point x="727" y="1585"/>
      <point x="803" y="1646"/>
      <point x="874" y="1646" type="curve" smooth="yes"/>
      <point x="962" y="1646"/>
      <point x="1001" y="1592"/>
      <point x="1001" y="1524" type="curve" smooth="yes"/>
      <point x="1001" y="1436"/>
      <point x="926" y="1382"/>
    </contour>
    <contour>
      <point x="385" y="1382" type="curve" smooth="yes"/>
      <point x="320" y="1382"/>
      <point x="261" y="1425"/>
      <point x="261" y="1502" type="curve" smooth="yes"/>
      <point x="261" y="1585"/>
      <point x="337" y="1646"/>
      <point x="408" y="1646" type="curve" smooth="yes"/>
      <point x="496" y="1646"/>
      <point x="535" y="1592"/>
      <point x="535" y="1524" type="curve" smooth="yes"/>
      <point x="535" y="1436"/>
      <point x="460" y="1382"/>
    </contour>
    <contour>
      <point x="101" y="582" type="curve" smooth="yes"/>
      <point x="106" y="940"/>
      <point x="356" y="1149"/>
      <point x="633" y="1152" type="curve" smooth="yes"/>
      <point x="972" y="1156"/>
      <point x="1133" y="895"/>
      <point x="1130" y="573" type="curve" smooth="yes"/>
      <point x="1127" y="218"/>
      <point x="895" y="-23"/>
      <point x="608" y="-24" type="curve" smooth="yes"/>
      <point x="241" y="-25"/>
      <point x="97" y="265"/>
    </contour>
    <contour>
      <point x="617" y="88" type="curve" smooth="yes"/>
      <point x="843" y="83"/>
      <point x="925" y="256"/>
      <point x="925" y="564" type="curve" smooth="yes"/>
      <point x="925" y="833"/>
      <point x="833" y="1043"/>
      <point x="621" y="1047" type="curve" smooth="yes"/>
      <point x="395" y="1051"/>
      <point x="306" y="878"/>
      <point x="306" y="591" type="curve" smooth="yes"/>
      <point x="306" y="332"/>
      <point x="405" y="93"/>
    </contour>
  </outline>
</glyph>
<glyph name="yacute" format="1">
  <advance width="1150"/>
  <unicode hex="00FD"/>
  <outline>
    <contour>
      <point x="519" y="1340" type="curve"/>
      <point x="466" y="1394" type="line"/>
      <point x="760" y="1780" type="line"/>
      <point x="906" y="1631" type="line"/>
      <point x="826" y="1508"/>
      <point x="628" y="1391"/>
    </contour>
    <contour>
      <point x="150" y="-339" type="line"/>
      <point x="172" y="-346"/>
      <point x="206" y="-350"/>
      <point x="230" y="-350" type="curve" smooth="yes"/>
      <point x="326" y="-350"/>
      <point x="462" y="-297"/>
      <point x="550" y="0" type="curve"/>
      <point x="507" y="0" type="line"/>
      <point x="106" y="995" type="line"/>
      <point x="2" y="1013" type="line"/>
      <point x="2" y="1119" type="line"/>
      <point x="465" y="1119" type="line"/>
      <point x="465" y="1013" type="line"/>
      <point x="321" y="993" type="line"/>
      <point x="556" y="322" type="line"/>
      <point x="623" y="118" type="line"/>
      <point x="681" y="322" type="line"/>
      <point x="884" y="996" type="line"/>
      <point x="728" y="1013" type="line"/>
      <point x="728" y="1119" type="line"/>
      <point x="1160" y="1119" type="line"/>
      <point x="1160" y="1013" type="line"/>
      <point x="1048" y="997" type="line"/>
      <point x="781" y="220"/>
      <point x="717" y="42"/>
      <point x="686" y="-38" type="curve" smooth="yes"/>
      <point x="581" y="-305"/>
      <point x="482" y="-465"/>
      <point x="317" y="-505" type="curve" smooth="yes"/>
      <point x="289" y="-512"/>
      <point x="261" y="-515"/>
      <point x="229" y="-515" type="curve" smooth="yes"/>
      <point x="202" y="-515"/>
      <point x="161" y="-509"/>
      <point x="150" y="-500" type="curve"/>
    </contour>
  </outline>
</glyph>
<glyph name="Aogonek" format="1">
  <advance width="1493"/>
  <unicode hex="0104"/>
  <outline>
    <contour>
      <point x="2" y="0" type="line"/>
      <point x="2" y="85" type="line"/>
      <point x="145" y="114" type="line"/>
      <point x="666" y="1553" type="line"/>
      <point x="834" y="1553" type="line"/>
      <point x="1332" y="115" type="line"/>
      <point x="1491" y="85" type="line"/>
      <point x="1491" y="0" type="line"/>
      <point x="1304" y="0" type="line"/>
      <point x="1185" y="-47"/>
      <point x="1025" y="-190"/>
      <point x="1025" y="-280" type="curve" smooth="yes"/>
      <point x="1025" y="-373"/>
      <point x="1069" y="-393"/>
      <point x="1152" y="-399" type="curve" smooth="yes"/>
      <point x="1236" y="-405"/>
      <point x="1335" y="-343"/>
      <point x="1368" y="-328" type="curve"/>
      <point x="1390" y="-416" type="line"/>
      <point x="1340" y="-455"/>
      <point x="1248" y="-527"/>
      <point x="1077" y="-527" type="curve" smooth="yes"/>
      <point x="1066" y="-527"/>
      <point x="1055" y="-527"/>
      <point x="1044" y="-526" type="curve" smooth="yes"/>
      <point x="898" y="-518"/>
      <point x="846" y="-425"/>
      <point x="846" y="-338" type="curve" smooth="yes"/>
      <point x="846" y="-215"/>
      <point x="1000" y="-66"/>
      <point x="1140" y="0" type="curve"/>
      <point x="963" y="0" type="line"/>
      <point x="963" y="85" type="line"/>
      <point x="1129" y="115" type="line"/>
      <point x="1021" y="437" type="line"/>
      <point x="421" y="437" type="line"/>
      <point x="313" y="115" type="line"/>
      <point x="480" y="85" type="line"/>
      <point x="480" y="0" type="line"/>
    </contour>
    <contour>
      <point x="460" y="554" type="line"/>
      <point x="982" y="554" type="line"/>
      <point x="819" y="1042" type="line"/>
      <point x="724" y="1343" type="line"/>
    </contour>
  </outline>
</glyph>
<glyph name="eogonek" format="1">
  <advance width="1145"/>
  <unicode hex="0119"/>
  <outline>
    <contour>
      <point x="100" y="556" type="curve" smooth="yes"/>
      <point x="100" y="898"/>
      <point x="325" y="1144"/>
      <point x="653" y="1152" type="curve" smooth="yes"/>
      <point x="889" y="1158"/>
      <point x="1033" y="1000"/>
      <point x="1044" y="736" type="curve" smooth="yes"/>
      <point x="1044" y="725"/>
      <point x="1045" y="714"/>
      <point x="1045" y="703" type="curve" smooth="yes"/>
      <point x="1045" y="637"/>
      <point x="1037" y="586"/>
      <point x="1032" y="545" type="curve"/>
      <point x="291" y="545" type="line"/>
      <point x="291" y="537"/>
      <point x="291" y="530"/>
      <point x="292" y="522" type="curve" smooth="yes"/>
      <point x="303" y="199"/>
      <point x="508" y="113"/>
      <point x="679" y="113" type="curve" smooth="yes"/>
      <point x="782" y="113"/>
      <point x="919" y="140"/>
      <point x="975" y="173" type="curve"/>
      <point x="1012" y="88" type="line"/>
      <point x="1011" y="87"/>
      <point x="1010" y="87"/>
      <point x="1010" y="86" type="curve" smooth="yes"/>
      <point x="1012" y="87" type="line"/>
      <point x="1005" y="82" type="line" smooth="yes"/>
      <point x="1001" y="78"/>
      <point x="996" y="75"/>
      <point x="992" y="72" type="curve" smooth="yes"/>
      <point x="795" y="-78"/>
      <point x="734" y="-169"/>
      <point x="734" y="-246" type="curve" smooth="yes"/>
      <point x="734" y="-347"/>
      <point x="808" y="-384"/>
      <point x="890" y="-384" type="curve" smooth="yes"/>
      <point x="933" y="-384"/>
      <point x="979" y="-374"/>
      <point x="1017" y="-358" type="curve"/>
      <point x="1017" y="-446" type="line"/>
      <point x="964" y="-486"/>
      <point x="883" y="-509"/>
      <point x="803" y="-509" type="curve" smooth="yes"/>
      <point x="676" y="-509"/>
      <point x="552" y="-450"/>
      <point x="552" y="-303" type="curve" smooth="yes"/>
      <point x="552" y="-215"/>
      <point x="622" y="-91"/>
      <point x="747" y="-12" type="curve"/>
      <point x="699" y="-20"/>
      <point x="649" y="-24"/>
      <point x="603" y="-24" type="curve" smooth="yes"/>
      <point x="281" y="-24"/>
      <point x="100" y="205"/>
    </contour>
    <contour>
      <point x="293" y="663" type="curve"/>
      <point x="840" y="663" type="line"/>
      <point x="842" y="686"/>
      <point x="842" y="709"/>
      <point x="842" y="732" type="curve" smooth="yes"/>
      <point x="842" y="846"/>
      <point x="820" y="957"/>
      <point x="735" y="1011" type="curve" smooth="yes"/>
      <point x="701" y="1033"/>
      <point x="657" y="1045"/>
      <point x="601" y="1045" type="curve" smooth="yes"/>
      <point x="451" y="1045"/>
      <point x="314" y="938"/>
    </contour>
  </outline>
</glyph>
<glyph name="Ldotaccent" format="1">
  <advance width="1392"/>
  <unicode hex="013F"/>
  <outline>
    <contour>
      <point x="106" y="0" type="line"/>
      <point x="106" y="85" type="line"/>
      <point x="275" y="115" type="line"/>
      <point x="275" y="1427" type="line"/>
      <point x="110" y="1444" type="line"/>
      <point x="110" y="1553" type="line"/>
      <point x="648" y="1553" type="line"/>
      <point x="648" y="1444" type="line"/>
      <point x="471" y="1427" type="line"/>
      <point x="469" y="112" type="line"/>
      <point x="1004" y="136" type="line"/>
      <point x="1127" y="374" type="line"/>
      <point x="1214" y="331" type="line"/>
      <point x="1149" y="0" type="line"/>
    </contour>
    <contour>
      <point x="1068" y="835" type="curve" smooth="yes"/>
      <point x="1068" y="918"/>
      <point x="1146" y="981"/>
      <point x="1217" y="981" type="curve" smooth="yes"/>
      <point x="1305" y="981"/>
      <point x="1344" y="925"/>
      <point x="1344" y="857" type="curve" smooth="yes"/>
      <point x="1344" y="769"/>
      <point x="1269" y="712"/>
      <point x="1194" y="712" type="curve" smooth="yes"/>
      <point x="1129" y="712"/>
      <point x="1068" y="758"/>
    </contour>
  </outline>
</glyph>
<glyph name="ldot" format="1">
  <advance width="1071"/>
  <unicode hex="0140"/>
  <outline>
    <contour>
      <point x="108" y="0" type="line"/>
      <point x="108" y="85" type="line"/>
      <point x="278" y="106" type="line"/>
      <point x="278" y="1460" type="line"/>
      <point x="118" y="1496" type="line"/>
      <point x="118" y="1583" type="line"/>
      <point x="431" y="1625" type="line"/>
      <point x="471" y="1602" type="line"/>
      <point x="471" y="106" type="line"/>
      <point x="649" y="85" type="line"/>
      <point x="649" y="0" type="line"/>
    </contour>
    <contour>
      <point x="743" y="797" type="curve" smooth="yes"/>
      <point x="743" y="880"/>
      <point x="821" y="943"/>
      <point x="892" y="943" type="curve" smooth="yes"/>
      <point x="980" y="943"/>
      <point x="1019" y="887"/>
      <point x="1019" y="819" type="curve" smooth="yes"/>
      <point x="1019" y="731"/>
      <point x="944" y="674"/>
      <point x="869" y="674" type="curve" smooth="yes"/>
      <point x="804" y="674"/>
      <point x="743" y="720"/>
    </contour>
  </outline>
</glyph>
<glyph name="lslash" format="1">
  <advance width="698"/>
  <unicode hex="0142"/>
  <outline>
    <contour>
      <point x="108" y="0" type="line"/>
      <point x="108" y="85" type="line"/>
      <point x="278" y="106" type="line"/>
      <point x="278" y="765" type="line"/>
      <point x="122" y="704" type="line"/>
      <point x="122" y="841" type="line"/>
      <point x="278" y="905" type="line"/>
      <point x="278" y="1460" type="line"/>
      <point x="118" y="1496" type="line"/>
      <point x="118" y="1583" type="line"/>
      <point x="431" y="1625" type="line"/>
      <point x="471" y="1602" type="line"/>
      <point x="471" y="984" type="line"/>
      <point x="656" y="1060" type="line"/>
      <point x="656" y="913" type="line"/>
      <point x="471" y="840" type="line"/>
      <point x="471" y="106" type="line"/>
      <point x="649" y="85" type="line"/>
      <point x="649" y="0" type="line"/>
    </contour>
  </outline>
</glyph>
<glyph name="Nacute" format="1">
  <advance width="1662"/>
  <unicode hex="0143"/>
  <outline>
    <contour>
      <point x="822" y="1607" type="curve"/>
      <point x="769" y="1661" type="line"/>
      <point x="1075" y="1920" type="line"/>
      <point x="1221" y="1771" type="line"/>
      <point x="1096" y="1691"/>
      <point x="946" y="1629"/>
    </contour>
    <contour>
      <point x="104" y="0" type="line"/>
      <point x="104" y="85" type="line"/>
      <point x="275" y="115" type="line"/>
      <point x="275" y="1427" type="line"/>
      <point x="110" y="1444" type="line"/>
      <point x="110" y="1553" type="line"/>
      <point x="465" y="1553" type="line"/>
      <point x="1134" y="458" type="line"/>
      <point x="1276" y="184" type="line"/>
      <point x="1276" y="1428" type="line"/>
      <point x="1112" y="1445" type="line"/>
      <point x="1112" y="1553" type="line"/>
      <point x="1585" y="1553" type="line"/>
      <point x="1585" y="1445" type="line"/>
      <point x="1419" y="1428" type="line"/>
      <point x="1419" y="0" type="line"/>
      <point x="1214" y="0" type="line"/>
      <point x="554" y="1040" type="line"/>
      <point x="418" y="1318" type="line"/>
      <point x="418" y="115" type="line"/>
      <point x="612" y="85" type="line"/>
      <point x="612" y="0" type="line"/>
    </contour>
  </outline>
</glyph>
<glyph name="OE" format="1">
  <advance width="2069"/>
  <unicode hex="0152"/>
  <outline>
    <contour>
      <point x="87" y="752" type="curve" smooth="yes"/>
      <point x="97" y="1262"/>
      <point x="415" y="1556"/>
      <point x="801" y="1567" type="curve" smooth="yes"/>
      <point x="856" y="1568"/>
      <point x="909" y="1563"/>
      <point x="958" y="1553" type="curve"/>
      <point x="1904" y="1553" type="line"/>
      <point x="1933" y="1267" type="line"/>
      <point x="1823" y="1267" type="line"/>
      <point x="1777" y="1435" type="line"/>
      <point x="1249" y="1448" type="line"/>
      <point x="1249" y="867" type="line"/>
      <point x="1617" y="874" type="line"/>
      <point x="1647" y="1031" type="line"/>
      <point x="1749" y="1031" type="line"/>
      <point x="1749" y="601" type="line"/>
      <point x="1647" y="601" type="line"/>
      <point x="1617" y="754" type="line"/>
      <point x="1249" y="760" type="line"/>
      <point x="1249" y="108" type="line"/>
      <point x="1809" y="127" type="line"/>
      <point x="1909" y="334" type="line"/>
      <point x="2006" y="310" type="line"/>
      <point x="1961" y="0" type="line"/>
      <point x="954" y="0" type="line"/>
      <point x="896" y="-17"/>
      <point x="834" y="-26"/>
      <point x="771" y="-28" type="curve" smooth="yes"/>
      <point x="349" y="-37"/>
      <point x="78" y="300"/>
    </contour>
    <contour>
      <point x="788" y="77" type="curve" smooth="yes"/>
      <point x="894" y="77"/>
      <point x="983" y="112"/>
      <point x="1055" y="177" type="curve"/>
      <point x="1055" y="1350" type="line"/>
      <point x="983" y="1419"/>
      <point x="893" y="1461"/>
      <point x="784" y="1461" type="curve" smooth="yes"/>
      <point x="490" y="1461"/>
      <point x="303" y="1198"/>
      <point x="303" y="753" type="curve" smooth="yes"/>
      <point x="303" y="405"/>
      <point x="479" y="77"/>
    </contour>
  </outline>
</glyph>
<glyph name="oe" format="1">
  <advance width="2028"/>
  <unicode hex="0153"/>
  <outline>
    <contour>
      <point x="101" y="582" type="curve" smooth="yes"/>
      <point x="106" y="940"/>
      <point x="356" y="1149"/>
      <point x="633" y="1152" type="curve" smooth="yes"/>
      <point x="849" y="1154"/>
      <point x="993" y="1049"/>
      <point x="1068" y="888" type="curve"/>
      <point x="1163" y="1047"/>
      <point x="1329" y="1147"/>
      <point x="1536" y="1152" type="curve" smooth="yes"/>
      <point x="1772" y="1158"/>
      <point x="1916" y="1000"/>
      <point x="1927" y="736" type="curve" smooth="yes"/>
      <point x="1927" y="725"/>
      <point x="1928" y="714"/>
      <point x="1928" y="703" type="curve" smooth="yes"/>
      <point x="1928" y="637"/>
      <point x="1920" y="586"/>
      <point x="1915" y="545" type="curve"/>
      <point x="1174" y="545" type="line"/>
      <point x="1174" y="537"/>
      <point x="1174" y="530"/>
      <point x="1175" y="522" type="curve" smooth="yes"/>
      <point x="1186" y="199"/>
      <point x="1391" y="113"/>
      <point x="1562" y="113" type="curve" smooth="yes"/>
      <point x="1665" y="113"/>
      <point x="1802" y="140"/>
      <point x="1858" y="173" type="curve"/>
      <point x="1895" y="88" type="line"/>
      <point x="1817" y="18"/>
      <point x="1637" y="-24"/>
      <point x="1486" y="-24" type="curve" smooth="yes"/>
      <point x="1275" y="-24"/>
      <point x="1124" y="74"/>
      <point x="1046" y="241" type="curve"/>
      <point x="953" y="76"/>
      <point x="792" y="-23"/>
      <point x="608" y="-24" type="curve" smooth="yes"/>
      <point x="241" y="-25"/>
      <point x="97" y="265"/>
    </contour>
    <contour>
      <point x="617" y="88" type="curve" smooth="yes"/>
      <point x="843" y="83"/>
      <point x="925" y="256"/>
      <point x="925" y="564" type="curve" smooth="yes"/>
      <point x="925" y="833"/>
      <point x="833" y="1043"/>
      <point x="621" y="1047" type="curve" smooth="yes"/>
      <point x="395" y="1051"/>
      <point x="306" y="878"/>
      <point x="306" y="591" type="curve" smooth="yes"/>
      <point x="306" y="332"/>
      <point x="405" y="93"/>
    </contour>
    <contour>
      <point x="1176" y="663" type="curve"/>
      <point x="1723" y="663" type="line"/>
      <point x="1725" y="686"/>
      <point x="1725" y="709"/>
      <point x="1725" y="732" type="curve" smooth="yes"/>
      <point x="1725" y="846"/>
      <point x="1703" y="957"/>
      <point x="1618" y="1011" type="curve" smooth="yes"/>
      <point x="1584" y="1033"/>
      <point x="1540" y="1045"/>
      <point x="1484" y="1045" type="curve" smooth="yes"/>
      <point x="1334" y="1045"/>
      <point x="1197" y="938"/>
    </contour>
  </outline>
</glyph>
<glyph name="Racute" format="1">
  <advance width="1419"/>
  <unicode hex="0154"/>
  <outline>
    <contour>
      <point x="688" y="1607" type="curve"/>
      <point x="635" y="1661" type="line"/>
      <point x="941" y="1920" type="line"/>
      <point x="1087" y="1771" type="line"/>
      <point x="962" y="1691"/>
      <point x="812" y="1629"/>
    </contour>
    <contour>
      <point x="86" y="0" type="line"/>
      <point x="86" y="85" type="line"/>
      <point x="275" y="115" type="line"/>
      <point x="275" y="1427" type="line"/>
      <point x="110" y="1444" type="line"/>
      <point x="110" y="1553" type="line"/>
      <point x="373" y="1553" type="line" smooth="yes"/>
      <point x="436" y="1553"/>
      <point x="540" y="1567"/>
      <point x="673" y="1567" type="curve" smooth="yes"/>
      <point x="980" y="1567"/>
      <point x="1199" y="1477"/>
      <point x="1199" y="1153" type="curve" smooth="yes"/>
      <point x="1199" y="945"/>
      <point x="1063" y="782"/>
      <point x="864" y="712" type="curve"/>
      <point x="871" y="710"/>
      <point x="877" y="707"/>
      <point x="884" y="704" type="curve" smooth="yes"/>
      <point x="1073" y="610"/>
      <point x="1223" y="144"/>
      <point x="1326" y="115" type="curve" smooth="yes"/>
      <point x="1433" y="85" type="line"/>
      <point x="1433" y="0" type="line"/>
      <point x="1144" y="0" type="line" smooth="yes"/>
      <point x="1043" y="0"/>
      <point x="864" y="698"/>
      <point x="630" y="674" type="curve"/>
      <point x="584" y="672"/>
      <point x="531" y="672"/>
      <point x="470" y="672" type="curve"/>
      <point x="470" y="114" type="line"/>
      <point x="677" y="85" type="line"/>
      <point x="677" y="0" type="line"/>
    </contour>
    <contour>
      <point x="470" y="785" type="line"/>
      <point x="503" y="781"/>
      <point x="605" y="779"/>
      <point x="647" y="779" type="curve" smooth="yes"/>
      <point x="860" y="779"/>
      <point x="995" y="881"/>
      <point x="995" y="1130" type="curve" smooth="yes"/>
      <point x="995" y="1336"/>
      <point x="914" y="1470"/>
      <point x="647" y="1460" type="curve" smooth="yes"/>
      <point x="582" y="1458"/>
      <point x="521" y="1459"/>
      <point x="470" y="1444" type="curve"/>
    </contour>
  </outline>
</glyph>
<glyph name="rcommaaccent" format="1">
  <advance width="923"/>
  <unicode hex="0157"/>
  <outline>
    <contour>
      <point x="112" y="0" type="line"/>
      <point x="112" y="85" type="line"/>
      <point x="274" y="106" type="line"/>
      <point x="274" y="920" type="line"/>
      <point x="132" y="998" type="line"/>
      <point x="132" y="1060" type="line"/>
      <point x="396" y="1139" type="line"/>
      <point x="443" y="1119" type="line"/>
      <point x="443" y="965" type="line"/>
      <point x="493" y="1041"/>
      <point x="663" y="1139"/>
      <point x="785" y="1139" type="curve" smooth="yes"/>
      <point x="829" y="1139"/>
      <point x="867" y="1137"/>
      <point x="882" y="1132" type="curve"/>
      <point x="882" y="927" type="line"/>
      <point x="839" y="944"/>
      <point x="797" y="961"/>
      <point x="705" y="961" type="curve" smooth="yes"/>
      <point x="597" y="961"/>
      <point x="529" y="929"/>
      <point x="468" y="891" type="curve"/>
      <point x="468" y="109" type="line"/>
      <point x="753" y="85" type="line"/>
      <point x="753" y="0" type="line"/>
    </contour>
    <contour>
      <point x="264" y="-145" type="line"/>
      <point x="366" y="-41" type="line"/>
      <point x="504" y="-77"/>
      <point x="571" y="-197"/>
      <point x="571" y="-295" type="curve" smooth="yes"/>
      <point x="571" y="-476"/>
      <point x="410" y="-616"/>
      <point x="321" y="-640" type="curve"/>
      <point x="265" y="-590" type="line"/>
      <point x="265" y="-564" type="line"/>
      <point x="341" y="-529"/>
      <point x="366" y="-422"/>
      <point x="366" y="-335" type="curve" smooth="yes"/>
      <point x="366" y="-259"/>
      <point x="300" y="-199"/>
      <point x="264" y="-199" type="curve"/>
    </contour>
  </outline>
</glyph>
<glyph name="Ydieresis" format="1">
  <advance width="1352"/>
  <unicode hex="0178"/>
  <outline>
    <contour>
      <point x="929" y="1651" type="curve" smooth="yes"/>
      <point x="864" y="1651"/>
      <point x="803" y="1697"/>
      <point x="803" y="1774" type="curve" smooth="yes"/>
      <point x="803" y="1857"/>
      <point x="881" y="1920"/>
      <point x="952" y="1920" type="curve" smooth="yes"/>
      <point x="1040" y="1920"/>
      <point x="1079" y="1864"/>
      <point x="1079" y="1796" type="curve" smooth="yes"/>
      <point x="1079" y="1708"/>
      <point x="1004" y="1651"/>
    </contour>
    <contour>
      <point x="463" y="1651" type="curve" smooth="yes"/>
      <point x="398" y="1651"/>
      <point x="337" y="1697"/>
      <point x="337" y="1774" type="curve" smooth="yes"/>
      <point x="337" y="1857"/>
      <point x="415" y="1920"/>
      <point x="486" y="1920" type="curve" smooth="yes"/>
      <point x="574" y="1920"/>
      <point x="613" y="1864"/>
      <point x="613" y="1796" type="curve" smooth="yes"/>
      <point x="613" y="1708"/>
      <point x="538" y="1651"/>
    </contour>
    <contour>
      <point x="402" y="0" type="line"/>
      <point x="402" y="85" type="line"/>
      <point x="606" y="116" type="line"/>
      <point x="606" y="638" type="line"/>
      <point x="126" y="1438" type="line"/>
      <point x="12" y="1455" type="line"/>
      <point x="12" y="1553" type="line"/>
      <point x="504" y="1553" type="line"/>
      <point x="504" y="1455" type="line"/>
      <point x="350" y="1437" type="line"/>
      <point x="668" y="845" type="line"/>
      <point x="716" y="744" type="line"/>
      <point x="761" y="847" type="line"/>
      <point x="1049" y="1436" type="line"/>
      <point x="879" y="1455" type="line"/>
      <point x="879" y="1553" type="line"/>
      <point x="1339" y="1553" type="line"/>
      <point x="1339" y="1455" type="line"/>
      <point x="1209" y="1428" type="line"/>
      <point x="801" y="637" type="line"/>
      <point x="801" y="116" type="line"/>
      <point x="1015" y="85" type="line"/>
      <point x="1015" y="0" type="line"/>
    </contour>
  </outline>
</glyph>
<glyph name="Zdotaccent" format="1">
  <advance width="1352"/>
  <unicode hex="017B"/>
  <outline>
    <contour>
      <point x="722" y="1651" type="curve" smooth="yes"/>
      <point x="657" y="1651"/>
      <point x="596" y="1697"/>
      <point x="596" y="1774" type="curve" smooth="yes"/>
      <point x="596" y="1857"/>
      <point x="674" y="1920"/>
      <point x="745" y="1920" type="curve" smooth="yes"/>
      <point x="833" y="1920"/>
      <point x="872" y="1864"/>
      <point x="872" y="1796" type="curve" smooth="yes"/>
      <point x="872" y="1708"/>
      <point x="797" y="1651"/>
    </contour>
    <contour>
      <point x="118" y="0" type="line"/>
      <point x="92" y="89" type="line"/>
      <point x="960" y="1324" type="line"/>
      <point x="1063" y="1444" type="line"/>
      <point x="351" y="1421" type="line"/>
      <point x="256" y="1193" type="line"/>
      <point x="149" y="1212" type="line"/>
      <point x="181" y="1553" type="line"/>
      <point x="1254" y="1553" type="line"/>
      <point x="1282" y="1467" type="line"/>
      <point x="419" y="232" type="line"/>
      <point x="322" y="111" type="line"/>
      <point x="1071" y="149" type="line"/>
      <point x="1201" y="404" type="line"/>
      <point x="1300" y="380" type="line"/>
      <point x="1229" y="0" type="line"/>
    </contour>
  </outline>
</glyph>
<glyph name="dotaccent" format="1">
  <advance width="575"/>
  <unicode hex="02D9"/>
  <outline>
    <contour>
      <point x="273" y="1360" type="curve" smooth="yes"/>
      <point x="208" y="1360"/>
      <point x="147" y="1406"/>
      <point x="147" y="1483" type="curve" smooth="yes"/>
      <point x="147" y="1566"/>
      <point x="225" y="1629"/>
      <point x="296" y="1629" type="curve" smooth="yes"/>
      <point x="384" y="1629"/>
      <point x="423" y="1573"/>
      <point x="423" y="1505" type="curve" smooth="yes"/>
      <point x="423" y="1417"/>
      <point x="348" y="1360"/>
    </contour>
  </outline>
</glyph>
<glyph name="ring" format="1">
  <advance width="575"/>
  <unicode hex="02DA"/>
  <outline>
    <contour>
      <point x="287" y="1320" type="curve" smooth="yes"/>
      <point x="149" y="1320"/>
      <point x="35" y="1428"/>
      <point x="35" y="1561" type="curve" smooth="yes"/>
      <point x="35" y="1694"/>
      <point x="149" y="1802"/>
      <point x="287" y="1802" type="curve" smooth="yes"/>
      <point x="425" y="1802"/>
      <point x="539" y="1694"/>
      <point x="539" y="1561" type="curve" smooth="yes"/>
      <point x="539" y="1428"/>
      <point x="425" y="1320"/>
    </contour>
    <contour>
      <point x="287" y="1426" type="curve" smooth="yes"/>
      <point x="360" y="1426"/>
      <point x="420" y="1485"/>
      <point x="420" y="1559" type="curve" smooth="yes"/>
      <point x="420" y="1631"/>
      <point x="360" y="1691"/>
      <point x="287" y="1691" type="curve" smooth="yes"/>
      <point x="214" y="1691"/>
      <point x="154" y="1631"/>
      <point x="154" y="1559" type="curve" smooth="yes"/>
      <point x="154" y="1485"/>
      <point x="214" y="1426"/>
    </contour>
  </outline>
</glyph>
<glyph name="tilde" format="1">
  <advance width="886"/>
  <unicode hex="02DC"/>
  <outline>
    <contour>
      <point x="108" y="1417" type="curve"/>
      <point x="56" y="1490" type="line"/>
      <point x="106" y="1583"/>
      <point x="228" y="1665"/>
      <point x="333" y="1665" type="curve" smooth="yes"/>
      <point x="464" y="1665"/>
      <point x="496" y="1530"/>
      <point x="593" y="1530" type="curve" smooth="yes"/>
      <point x="670" y="1530"/>
      <point x="736" y="1583"/>
      <point x="778" y="1625" type="curve"/>
      <point x="830" y="1552" type="line"/>
      <point x="780" y="1459"/>
      <point x="658" y="1376"/>
      <point x="553" y="1376" type="curve" smooth="yes"/>
      <point x="422" y="1376"/>
      <point x="391" y="1512"/>
      <point x="293" y="1512" type="curve" smooth="yes"/>
      <point x="215" y="1512"/>
      <point x="149" y="1458"/>
    </contour>
  </outline>
</glyph>
<glyph name="hungarumlaut" format="1">
  <advance width="915"/>
  <unicode hex="02DD"/>
  <outline>
    <contour>
      <point x="739" y="1340" type="curve"/>
      <point x="686" y="1394" type="line"/>
      <point x="1010" y="1810" type="line"/>
      <point x="1136" y="1691" type="line"/>
      <point x="1043" y="1570"/>
      <point x="842" y="1408"/>
    </contour>
    <contour>
      <point x="249" y="1340" type="curve"/>
      <point x="196" y="1394" type="line"/>
      <point x="520" y="1810" type="line"/>
      <point x="646" y="1691" type="line"/>
      <point x="553" y="1570"/>
      <point x="352" y="1408"/>
    </contour>
  </outline>
</glyph>
<glyph name="Omega" format="1">
  <advance width="1948"/>
  <unicode hex="03A9"/>
  <unicode hex="2126"/>
  <outline>
    <contour>
      <point x="142" y="0" type="line"/>
      <point x="142" y="361" type="line"/>
      <point x="241" y="368" type="line"/>
      <point x="274" y="182" type="line"/>
      <point x="614" y="182" type="line"/>
      <point x="446" y="286"/>
      <point x="256" y="526"/>
      <point x="262" y="822" type="curve" smooth="yes"/>
      <point x="271" y="1326"/>
      <point x="616" y="1553"/>
      <point x="972" y="1553" type="curve" smooth="yes"/>
      <point x="1364" y="1553"/>
      <point x="1647" y="1305"/>
      <point x="1638" y="858" type="curve" smooth="yes"/>
      <point x="1633" y="610"/>
      <point x="1454" y="321"/>
      <point x="1288" y="182" type="curve"/>
      <point x="1636" y="182" type="line"/>
      <point x="1706" y="399" type="line"/>
      <point x="1805" y="392" type="line"/>
      <point x="1759" y="0" type="line"/>
      <point x="1079" y="0" type="line"/>
      <point x="1079" y="166" type="line"/>
      <point x="1285" y="288"/>
      <point x="1421" y="531"/>
      <point x="1421" y="857" type="curve" smooth="yes"/>
      <point x="1421" y="1276"/>
      <point x="1199" y="1471"/>
      <point x="958" y="1471" type="curve" smooth="yes"/>
      <point x="673" y="1471"/>
      <point x="477" y="1251"/>
      <point x="477" y="823" type="curve" smooth="yes"/>
      <point x="477" y="494"/>
      <point x="683" y="256"/>
      <point x="844" y="166" type="curve"/>
      <point x="844" y="0" type="line"/>
    </contour>
  </outline>
</glyph>
<glyph name="quotedblbase" format="1">
  <advance width="1325"/>
  <unicode hex="201E"/>
  <outline>
    <contour>
      <point x="796" y="89" type="curve"/>
      <point x="796" y="134" type="line"/>
      <point x="908" y="279" type="line"/>
      <point x="1066" y="239"/>
      <point x="1125" y="65"/>
      <point x="1125" y="-43" type="curve" smooth="yes"/>
      <point x="1125" y="-270"/>
      <point x="963" y="-434"/>
      <point x="807" y="-498" type="curve"/>
      <point x="760" y="-438" type="line"/>
      <point x="760" y="-412" type="line"/>
      <point x="857" y="-380"/>
      <point x="939" y="-248"/>
      <point x="939" y="-120" type="curve" smooth="yes"/>
      <point x="939" y="-19"/>
      <point x="873" y="81"/>
    </contour>
    <contour>
      <point x="245" y="89" type="curve"/>
      <point x="245" y="134" type="line"/>
      <point x="357" y="279" type="line"/>
      <point x="515" y="239"/>
      <point x="574" y="65"/>
      <point x="574" y="-43" type="curve" smooth="yes"/>
      <point x="574" y="-270"/>
      <point x="412" y="-434"/>
      <point x="256" y="-498" type="curve"/>
      <point x="209" y="-438" type="line"/>
      <point x="209" y="-412" type="line"/>
      <point x="306" y="-380"/>
      <point x="388" y="-248"/>
      <point x="388" y="-120" type="curve" smooth="yes"/>
      <point x="388" y="-19"/>
      <point x="322" y="81"/>
    </contour>
  </outline>
</glyph>
<glyph name="dagger" format="1">
  <advance width="923"/>
  <unicode hex="2020"/>
  <outline>
    <contour>
      <point x="412" y="283" type="line"/>
      <point x="373" y="1001" type="line"/>
      <point x="377" y="1135" type="line"/>
      <point x="92" y="1131" type="line"/>
      <point x="93" y="1278" type="line"/>
      <point x="394" y="1274" type="line"/>
      <point x="373" y="1473" type="line"/>
      <point x="368" y="1648" type="line"/>
      <point x="555" y="1648" type="line"/>
      <point x="550" y="1473" type="line"/>
      <point x="530" y="1274" type="line"/>
      <point x="831" y="1278" type="line"/>
      <point x="831" y="1131" type="line"/>
      <point x="547" y="1135" type="line"/>
      <point x="550" y="1001" type="line"/>
      <point x="512" y="283" type="line"/>
    </contour>
  </outline>
</glyph>
<glyph name="bullet" format="1">
  <advance width="841"/>
  <unicode hex="2022"/>
  <outline>
    <contour>
      <point x="411" y="509" type="curve" smooth="yes"/>
      <point x="300" y="509"/>
      <point x="208" y="610"/>
      <point x="216" y="724" type="curve" smooth="yes"/>
      <point x="225" y="844"/>
      <point x="320" y="938"/>
      <point x="430" y="938" type="curve" smooth="yes"/>
      <point x="540" y="938"/>
      <point x="633" y="844"/>
      <point x="625" y="724" type="curve" smooth="yes"/>
      <point x="617" y="605"/>
      <point x="521" y="509"/>
    </contour>
  </outline>
</glyph>
<glyph name="Euro" format="1">
  <advance width="1390"/>
  <unicode hex="20AC"/>
  <outline>
    <contour>
      <point x="-39" y="566" type="line"/>
      <point x="-39" y="693" type="line"/>
      <point x="156" y="693" type="line"/>
      <point x="156" y="724" type="line" smooth="yes"/>
      <point x="156" y="784"/>
      <point x="160" y="842"/>
      <point x="167" y="897" type="curve"/>
      <point x="-9" y="897" type="line"/>
      <point x="-9" y="1024" type="line"/>
      <point x="191" y="1024" type="line"/>
      <point x="276" y="1363"/>
      <point x="515" y="1567"/>
      <point x="852" y="1567" type="curve" smooth="yes"/>
      <point x="1045" y="1567"/>
      <point x="1182" y="1515"/>
      <point x="1269" y="1496" type="curve"/>
      <point x="1253" y="1206" type="line"/>
      <point x="1167" y="1206" type="line"/>
      <point x="1115" y="1373" type="line"/>
      <point x="1031" y="1430"/>
      <point x="928" y="1451"/>
      <point x="789" y="1451" type="curve" smooth="yes"/>
      <point x="562" y="1451"/>
      <point x="425" y="1299"/>
      <point x="378" y="1024" type="curve"/>
      <point x="949" y="1024" type="line"/>
      <point x="949" y="897" type="line"/>
      <point x="364" y="897" type="line"/>
      <point x="361" y="861"/>
      <point x="360" y="824"/>
      <point x="360" y="786" type="curve" smooth="yes"/>
      <point x="360" y="754"/>
      <point x="360" y="723"/>
      <point x="362" y="693" type="curve"/>
      <point x="919" y="693" type="line"/>
      <point x="919" y="566" type="line"/>
      <point x="371" y="566" type="line"/>
      <point x="404" y="288"/>
      <point x="515" y="77"/>
      <point x="807" y="77" type="curve" smooth="yes"/>
      <point x="969" y="77"/>
      <point x="1045" y="107"/>
      <point x="1136" y="177" type="curve"/>
      <point x="1150" y="235"/>
      <point x="1165" y="293"/>
      <point x="1181" y="351" type="curve"/>
      <point x="1211" y="351"/>
      <point x="1240" y="350"/>
      <point x="1270" y="350" type="curve"/>
      <point x="1270" y="63" type="line"/>
      <point x="1175" y="59"/>
      <point x="1047" y="-28"/>
      <point x="761" y="-28" type="curve" smooth="yes"/>
      <point x="399" y="-28"/>
      <point x="207" y="208"/>
      <point x="165" y="566" type="curve"/>
    </contour>
  </outline>
</glyph>
<glyph name="partialdiff" format="1">
  <advance width="1241"/>
  <unicode hex="2202"/>
  <outline>
    <contour>
      <point x="63" y="411" type="curve" smooth="yes"/>
      <point x="63" y="775"/>
      <point x="395" y="1027"/>
      <point x="756" y="1027" type="curve" smooth="yes"/>
      <point x="838" y="1027"/>
      <point x="919" y="1014"/>
      <point x="995" y="989" type="curve"/>
      <point x="980" y="1310"/>
      <point x="880" y="1589"/>
      <point x="513" y="1589" type="curve" smooth="yes"/>
      <point x="406" y="1589"/>
      <point x="297" y="1566"/>
      <point x="203" y="1504" type="curve"/>
      <point x="139" y="1583" type="line"/>
      <point x="250" y="1664"/>
      <point x="428" y="1711"/>
      <point x="587" y="1711" type="curve" smooth="yes"/>
      <point x="1035" y="1711"/>
      <point x="1178" y="1374"/>
      <point x="1178" y="976" type="curve" smooth="yes"/>
      <point x="1178" y="551"/>
      <point x="1039" y="-24"/>
      <point x="519" y="-24" type="curve" smooth="yes"/>
      <point x="255" y="-24"/>
      <point x="63" y="153"/>
    </contour>
    <contour>
      <point x="250" y="468" type="curve" smooth="yes"/>
      <point x="250" y="266"/>
      <point x="392" y="96"/>
      <point x="596" y="96" type="curve" smooth="yes"/>
      <point x="870" y="96"/>
      <point x="958" y="390"/>
      <point x="985" y="647" type="curve" smooth="yes"/>
      <point x="991" y="702"/>
      <point x="994" y="756"/>
      <point x="995" y="805" type="curve"/>
      <point x="905" y="870"/>
      <point x="793" y="905"/>
      <point x="682" y="905" type="curve" smooth="yes"/>
      <point x="464" y="905"/>
      <point x="250" y="761"/>
    </contour>
  </outline>
</glyph>
<glyph name="product" format="1">
  <advance width="1415"/>
  <unicode hex="220F"/>
  <outline>
    <contour>
      <point x="31" y="-92" type="line"/>
      <point x="200" y="-61" type="line"/>
      <point x="200" y="1438" type="line"/>
      <point x="35" y="1456" type="line"/>
      <point x="35" y="1553" type="line"/>
      <point x="1380" y="1553" type="line"/>
      <point x="1380" y="1456" type="line"/>
      <point x="1215" y="1438" type="line"/>
      <point x="1215" y="-61" type="line"/>
      <point x="1384" y="-92" type="line"/>
      <point x="1384" y="-177" type="line"/>
      <point x="848" y="-177" type="line"/>
      <point x="848" y="-92" type="line"/>
      <point x="1020" y="-61" type="line"/>
      <point x="1020" y="1448" type="line"/>
      <point x="395" y="1448" type="line"/>
      <point x="395" y="-61" type="line"/>
      <point x="567" y="-92" type="line"/>
      <point x="567" y="-177" type="line"/>
      <point x="31" y="-177" type="line"/>
    </contour>
  </outline>
</glyph>
<glyph name="summation" format="1">
  <advance width="1592"/>
  <unicode hex="2211"/>
  <outline>
    <contour>
      <point x="208" y="-147" type="line"/>
      <point x="769" y="677" type="line"/>
      <point x="208" y="1472" type="line"/>
      <point x="214" y="1553" type="line"/>
      <point x="1291" y="1553" type="line"/>
      <point x="1324" y="1228" type="line"/>
      <point x="1221" y="1228" type="line"/>
      <point x="1164" y="1435" type="line"/>
      <point x="425" y="1449" type="line"/>
      <point x="971" y="708" type="line"/>
      <point x="418" y="-79" type="line"/>
      <point x="1176" y="-50" type="line"/>
      <point x="1276" y="157" type="line"/>
      <point x="1373" y="133" type="line"/>
      <point x="1328" y="-180" type="line"/>
      <point x="224" y="-179" type="line"/>
    </contour>
  </outline>
</glyph>
<glyph name="radical" format="1">
  <advance width="1770"/>
  <unicode hex="221A"/>
  <outline>
    <contour>
      <point x="259" y="463" type="line"/>
      <point x="180" y="579" type="line"/>
      <point x="361" y="708" type="line"/>
      <point x="530" y="708" type="line"/>
      <point x="865" y="-147" type="line"/>
      <point x="873" y="-147" type="line"/>
      <point x="1506" y="1920" type="line"/>
      <point x="1669" y="1920" type="line"/>
      <point x="950" y="-354" type="line"/>
      <point x="773" y="-354" type="line"/>
      <point x="385" y="555" type="line"/>
    </contour>
  </outline>
</glyph>
<glyph name="infinity" format="1">
  <advance width="1770"/>
  <unicode hex="221E"/>
  <outline>
    <contour>
      <point x="501" y="240" type="curve" smooth="yes"/>
      <point x="242" y="236"/>
      <point x="115" y="417"/>
      <point x="115" y="597" type="curve" smooth="yes"/>
      <point x="115" y="822"/>
      <point x="298" y="994"/>
      <point x="506" y="994" type="curve" smooth="yes"/>
      <point x="681" y="994"/>
      <point x="805" y="858"/>
      <point x="912" y="728" type="curve"/>
      <point x="1019" y="863"/>
      <point x="1132" y="991"/>
      <point x="1289" y="994" type="curve" smooth="yes"/>
      <point x="1548" y="998"/>
      <point x="1655" y="817"/>
      <point x="1655" y="637" type="curve" smooth="yes"/>
      <point x="1655" y="412"/>
      <point x="1472" y="240"/>
      <point x="1264" y="240" type="curve" smooth="yes"/>
      <point x="1089" y="240"/>
      <point x="965" y="375"/>
      <point x="858" y="505" type="curve"/>
      <point x="756" y="370"/>
      <point x="657" y="242"/>
    </contour>
    <contour>
      <point x="523" y="357" type="curve" smooth="yes"/>
      <point x="633" y="357"/>
      <point x="726" y="470"/>
      <point x="804" y="582" type="curve"/>
      <point x="719" y="698"/>
      <point x="612" y="872"/>
      <point x="475" y="872" type="curve" smooth="yes"/>
      <point x="341" y="872"/>
      <point x="291" y="754"/>
      <point x="291" y="634" type="curve" smooth="yes"/>
      <point x="291" y="494"/>
      <point x="384" y="357"/>
    </contour>
    <contour>
      <point x="967" y="650" type="curve"/>
      <point x="1054" y="529"/>
      <point x="1178" y="352"/>
      <point x="1315" y="352" type="curve" smooth="yes"/>
      <point x="1449" y="352"/>
      <point x="1479" y="475"/>
      <point x="1479" y="600" type="curve" smooth="yes"/>
      <point x="1479" y="735"/>
      <point x="1406" y="867"/>
      <point x="1267" y="867" type="curve" smooth="yes"/>
      <point x="1157" y="867"/>
      <point x="1050" y="757"/>
    </contour>
  </outline>
</glyph>
<glyph name="approxequal" format="1">
  <advance width="1282"/>
  <unicode hex="2248"/>
  <outline>
    <contour>
      <point x="222" y="894" type="curve"/>
      <point x="150" y="983" type="line"/>
      <point x="210" y="1084"/>
      <point x="346" y="1173"/>
      <point x="492" y="1173" type="curve" smooth="yes"/>
      <point x="649" y="1173"/>
      <point x="708" y="1006"/>
      <point x="824" y="1006" type="curve" smooth="yes"/>
      <point x="916" y="1006"/>
      <point x="987" y="1065"/>
      <point x="1036" y="1109" type="curve"/>
      <point x="1108" y="1020" type="line"/>
      <point x="1048" y="919"/>
      <point x="912" y="829"/>
      <point x="766" y="829" type="curve" smooth="yes"/>
      <point x="609" y="829"/>
      <point x="552" y="997"/>
      <point x="434" y="997" type="curve" smooth="yes"/>
      <point x="341" y="997"/>
      <point x="271" y="938"/>
    </contour>
    <contour>
      <point x="236" y="504" type="curve"/>
      <point x="164" y="593" type="line"/>
      <point x="224" y="694"/>
      <point x="360" y="783"/>
      <point x="506" y="783" type="curve" smooth="yes"/>
      <point x="663" y="783"/>
      <point x="722" y="616"/>
      <point x="838" y="616" type="curve" smooth="yes"/>
      <point x="930" y="616"/>
      <point x="1001" y="675"/>
      <point x="1050" y="719" type="curve"/>
      <point x="1122" y="630" type="line"/>
      <point x="1062" y="529"/>
      <point x="926" y="439"/>
      <point x="780" y="439" type="curve" smooth="yes"/>
      <point x="623" y="439"/>
      <point x="566" y="607"/>
      <point x="448" y="607" type="curve" smooth="yes"/>
      <point x="355" y="607"/>
      <point x="285" y="548"/>
    </contour>
  </outline>
</glyph>
<glyph name="notequal" format="1">
  <advance width="1241"/>
  <unicode hex="2260"/>
  <outline>
    <contour>
      <point x="408" y="354" type="line"/>
      <point x="456" y="525" type="line"/>
      <point x="178" y="525" type="line"/>
      <point x="178" y="672" type="line"/>
      <point x="502" y="672" type="line"/>
      <point x="569" y="914" type="line"/>
      <point x="178" y="914" type="line"/>
      <point x="178" y="1061" type="line"/>
      <point x="613" y="1061" type="line"/>
      <point x="665" y="1239" type="line"/>
      <point x="839" y="1239" type="line"/>
      <point x="787" y="1061" type="line"/>
      <point x="1063" y="1061" type="line"/>
      <point x="1063" y="914" type="line"/>
      <point x="743" y="914" type="line"/>
      <point x="676" y="672" type="line"/>
      <point x="1063" y="672" type="line"/>
      <point x="1063" y="525" type="line"/>
      <point x="632" y="525" type="line"/>
      <point x="582" y="354" type="line"/>
    </contour>
  </outline>
</glyph>
<glyph name="ffl" format="1">
  <advance width="2372"/>
  <unicode hex="FB04"/>
  <outline>
    <contour>
      <point x="947" y="0" type="line"/>
      <point x="947" y="85" type="line"/>
      <point x="1148" y="107" type="line"/>
      <point x="1148" y="984" type="line"/>
      <point x="928" y="984" type="line"/>
      <point x="928" y="1060" type="line"/>
      <point x="1148" y="1119" type="line"/>
      <point x="1148" y="1202" type="line" smooth="yes"/>
      <point x="1148" y="1500"/>
      <point x="1389" y="1689"/>
      <point x="1558" y="1689" type="curve" smooth="yes"/>
      <point x="1649" y="1689"/>
      <point x="1686" y="1679"/>
      <point x="1701" y="1672" type="curve"/>
      <point x="1701" y="1502" type="line"/>
      <point x="1682" y="1512"/>
      <point x="1613" y="1533"/>
      <point x="1518" y="1533" type="curve" smooth="yes"/>
      <point x="1410" y="1533"/>
      <point x="1340" y="1511"/>
      <point x="1340" y="1284" type="curve" smooth="yes"/>
      <point x="1340" y="1119" type="line"/>
      <point x="1642" y="1119" type="line"/>
      <point x="1642" y="984" type="line"/>
      <point x="1340" y="984" type="line"/>
      <point x="1340" y="105" type="line"/>
      <point x="1570" y="85" type="line"/>
      <point x="1570" y="0" type="line"/>
    </contour>
    <contour>
      <point x="110" y="0" type="line"/>
      <point x="110" y="85" type="line"/>
      <point x="311" y="107" type="line"/>
      <point x="311" y="984" type="line"/>
      <point x="91" y="984" type="line"/>
      <point x="91" y="1060" type="line"/>
      <point x="311" y="1119" type="line"/>
      <point x="311" y="1202" type="line" smooth="yes"/>
      <point x="311" y="1500"/>
      <point x="552" y="1689"/>
      <point x="721" y="1689" type="curve" smooth="yes"/>
      <point x="812" y="1689"/>
      <point x="849" y="1679"/>
      <point x="864" y="1672" type="curve"/>
      <point x="864" y="1502" type="line"/>
      <point x="845" y="1512"/>
      <point x="776" y="1533"/>
      <point x="681" y="1533" type="curve" smooth="yes"/>
      <point x="573" y="1533"/>
      <point x="503" y="1511"/>
      <point x="503" y="1284" type="curve" smooth="yes"/>
      <point x="503" y="1119" type="line"/>
      <point x="805" y="1119" type="line"/>
      <point x="805" y="984" type="line"/>
      <point x="503" y="984" type="line"/>
      <point x="503" y="105" type="line"/>
      <point x="733" y="85" type="line"/>
      <point x="733" y="0" type="line"/>
    </contour>
    <contour>
      <point x="1782" y="0" type="line"/>
      <point x="1782" y="85" type="line"/>
      <point x="1952" y="106" type="line"/>
      <point x="1952" y="1460" type="line"/>
      <point x="1792" y="1496" type="line"/>
      <point x="1792" y="1583" type="line"/>
      <point x="2105" y="1625" type="line"/>
      <point x="2145" y="1602" type="line"/>
      <point x="2145" y="106" type="line"/>
      <point x="2323" y="85" type="line"/>
      <point x="2323" y="0" type="line"/>
    </contour>
  </outline>
</glyph>
<glyph name="breve.cap" format="1">
  <advance width="574"/>
  <outline>
    <contour>
      <point x="287" y="1611" type="curve" smooth="yes"/>
      <point x="84" y="1611"/>
      <point x="-37" y="1757"/>
      <point x="-37" y="1920" type="curve"/>
      <point x="47" y="1920" type="line"/>
      <point x="64" y="1895"/>
      <point x="97" y="1755"/>
      <point x="288" y="1755" type="curve" smooth="yes"/>
      <point x="480" y="1755"/>
      <point x="512" y="1893"/>
      <point x="531" y="1920" type="curve"/>
      <point x="611" y="1920" type="line"/>
      <point x="611" y="1757"/>
      <point x="479" y="1611"/>
    </contour>
  </outline>
</glyph>
<glyph name="caron.cap" format="1">
  <advance width="708"/>
  <outline>
    <contour>
      <point x="442" y="1616" type="line"/>
      <point x="205" y="1871" type="line"/>
      <point x="292" y="1920" type="line"/>
      <point x="536" y="1752" type="line"/>
      <point x="786" y="1920" type="line"/>
      <point x="864" y="1874" type="line"/>
      <point x="631" y="1616" type="line"/>
    </contour>
  </outline>
</glyph>
<glyph name="circumflex.cap" format="1">
  <advance width="1062"/>
  <outline>
    <contour>
      <point x="263" y="1616" type="line"/>
      <point x="185" y="1662" type="line"/>
      <point x="438" y="1920" type="line"/>
      <point x="627" y="1920" type="line"/>
      <point x="884" y="1665" type="line"/>
      <point x="797" y="1616" type="line"/>
      <point x="533" y="1784" type="line"/>
    </contour>
  </outline>
</glyph>
<glyph name="dotaccent.cap" format="1">
  <advance width="574"/>
  <outline>
    <contour>
      <point x="278" y="1651" type="curve" smooth="yes"/>
      <point x="213" y="1651"/>
      <point x="152" y="1697"/>
      <point x="152" y="1774" type="curve" smooth="yes"/>
      <point x="152" y="1857"/>
      <point x="230" y="1920"/>
      <point x="301" y="1920" type="curve" smooth="yes"/>
      <point x="389" y="1920"/>
      <point x="428" y="1864"/>
      <point x="428" y="1796" type="curve" smooth="yes"/>
      <point x="428" y="1708"/>
      <point x="353" y="1651"/>
    </contour>
  </outline>
</glyph>
<glyph name="grave.cap" format="1">
  <advance width="1062"/>
  <outline>
    <contour>
      <point x="544" y="1607" type="line"/>
      <point x="420" y="1629"/>
      <point x="270" y="1691"/>
      <point x="145" y="1771" type="curve"/>
      <point x="291" y="1920" type="line"/>
      <point x="597" y="1661" type="line"/>
    </contour>
  </outline>
</glyph>
<glyph name="hungarumlaut.cap" format="1">
  <advance width="709"/>
  <outline>
    <contour>
      <point x="588" y="1520" type="curve"/>
      <point x="535" y="1574" type="line"/>
      <point x="819" y="1920" type="line"/>
      <point x="945" y="1801" type="line"/>
      <point x="852" y="1680"/>
      <point x="691" y="1588"/>
    </contour>
    <contour>
      <point x="97" y="1520" type="curve"/>
      <point x="44" y="1574" type="line"/>
      <point x="328" y="1920" type="line"/>
      <point x="454" y="1801" type="line"/>
      <point x="361" y="1680"/>
      <point x="200" y="1588"/>
    </contour>
  </outline>
</glyph>
<glyph name="ring.cap" format="1">
  <advance width="708"/>
  <outline>
    <contour>
      <point x="354" y="1448" type="curve" smooth="yes"/>
      <point x="216" y="1448"/>
      <point x="102" y="1551"/>
      <point x="102" y="1684" type="curve" smooth="yes"/>
      <point x="102" y="1817"/>
      <point x="216" y="1920"/>
      <point x="354" y="1920" type="curve" smooth="yes"/>
      <point x="492" y="1920"/>
      <point x="606" y="1817"/>
      <point x="606" y="1684" type="curve" smooth="yes"/>
      <point x="606" y="1551"/>
      <point x="492" y="1448"/>
    </contour>
    <contour>
      <point x="354" y="1554" type="curve" smooth="yes"/>
      <point x="427" y="1554"/>
      <point x="487" y="1608"/>
      <point x="487" y="1682" type="curve" smooth="yes"/>
      <point x="487" y="1754"/>
      <point x="427" y="1809"/>
      <point x="354" y="1809" type="curve" smooth="yes"/>
      <point x="281" y="1809"/>
      <point x="221" y="1754"/>
      <point x="221" y="1682" type="curve" smooth="yes"/>
      <point x="221" y="1608"/>
      <point x="281" y="1554"/>
    </contour>
  </outline>
</glyph>
